<?xml version="1.0" encoding="UTF-8"?>
<svg version="1.1" xmlns="http://www.w3.org/2000/svg" width="360" height="280">
<path d="M0 0 C118.8 0 237.6 0 360 0 C360 92.4 360 184.8 360 280 C241.2 280 122.4 280 0 280 C0 187.6 0 95.2 0 0 Z " fill="#222930" transform="translate(0,0)"/>
<path d="M0 0 C0.83595703 0.00451172 1.67191406 0.00902344 2.53320312 0.01367188 C4.58466649 0.02539452 6.63609273 0.04332797 8.6875 0.0625 C9.1825 1.0525 9.1825 1.0525 9.6875 2.0625 C8.54087891 2.08376953 8.54087891 2.08376953 7.37109375 2.10546875 C-5.75708234 2.68999645 -18.34835621 6.10426025 -28.3125 15.0625 C-29.68028228 16.70101371 -31.02257649 18.36201393 -32.3125 20.0625 C-31.33667969 19.56878906 -30.36085937 19.07507813 -29.35546875 18.56640625 C-28.07036595 17.91916469 -26.78520675 17.27203512 -25.5 16.625 C-24.85740234 16.29951172 -24.21480469 15.97402344 -23.55273438 15.63867188 C-17.94437283 12.81996167 -13.83869815 11.92457696 -7.625 12 C-6.92310547 12.00451172 -6.22121094 12.00902344 -5.49804688 12.01367188 C-3.76949462 12.02543073 -2.04098635 12.04336546 -0.3125 12.0625 C0.1825 13.0525 0.1825 13.0525 0.6875 14.0625 C-0.20710938 14.22105469 -1.10171875 14.37960938 -2.0234375 14.54296875 C-12.61806966 16.58734873 -23.03839244 19.5897246 -30.3125 28.0625 C-32.53903526 31.40026766 -34.5975513 34.7652602 -36.61328125 38.234375 C-38.3125 41.0625 -38.3125 41.0625 -40.3125 43.0625 C-41.01375 42.4025 -41.715 41.7425 -42.4375 41.0625 C-45.81513831 38.71283857 -47.28554363 38.37706062 -51.3125 39.0625 C-53.8125 40.5625 -53.8125 40.5625 -55.3125 43.0625 C-55.81549316 47.17027749 -55.63999345 48.57125983 -53.3125 52.0625 C-50.22884129 52.3127157 -50.22884129 52.3127157 -47.3125 52.0625 C-46.9825 51.0725 -46.6525 50.0825 -46.3125 49.0625 C-44.8275 49.5575 -44.8275 49.5575 -43.3125 50.0625 C-42.88281627 56.03119763 -44.19823362 59.95928363 -46.75 65.3125 C-52.15319276 77.03903321 -52.55947412 87.48047529 -49.3125 100.0625 C-54.45736723 95.30565349 -55.99834744 88.93308707 -56.43798828 82.11694336 C-57.02755064 66.3378075 -57.02755064 66.3378075 -53.3125 59.0625 C-54.034375 59.02125 -54.75625 58.98 -55.5 58.9375 C-59.47858196 57.69971895 -60.91994824 55.38548855 -63.3125 52.0625 C-65.57841908 45.26474275 -64.87930151 39.50361429 -61.8125 33.0625 C-54.57262034 19.85141119 -43.54820704 7.74689691 -29.3125 2.0625 C-28.6525 2.3925 -27.9925 2.7225 -27.3125 3.0625 C-28.364375 3.77212891 -28.364375 3.77212891 -29.4375 4.49609375 C-40.42847418 12.15692222 -46.84249884 19.81715648 -52.3125 32.0625 C-51.6525 31.7325 -50.9925 31.4025 -50.3125 31.0625 C-48.66552715 31.11899993 -47.0195127 31.20624661 -45.375 31.3125 C-42.72004177 31.42265188 -42.72004177 31.42265188 -40.3125 31.0625 C-38.08224753 28.7422907 -38.08224753 28.7422907 -37.3125 26.0625 C-39.2925 25.7325 -41.2725 25.4025 -43.3125 25.0625 C-38.22679278 13.9820461 -27.70749076 6.78368013 -16.890625 2.0078125 C-11.23139725 -0.06723767 -5.95649464 -0.06111636 0 0 Z " fill="#D9B35C" transform="translate(235.3125,67.9375)"/>
<path d="M0 0 C0.33 0 0.66 0 1 0 C1.00410889 0.57741943 1.00821777 1.15483887 1.01245117 1.74975586 C1.27729357 23.14266514 4.926292 40.41972452 18.6796875 57.41796875 C22.15705113 59.7888985 24.84955785 59.26427659 29 59 C28.38511719 58.05640625 27.77023438 57.1128125 27.13671875 56.140625 C19.58674609 44.27393953 15.46015693 33.39853259 17 19 C18.01953125 16.625 18.01953125 16.625 19 15 C19.22042969 16.39798828 19.22042969 16.39798828 19.4453125 17.82421875 C22.07486877 32.77037476 27.4046921 46.7463044 40 56 C42.29946691 57.41684324 44.62143761 58.71557631 47 60 C44.34072316 62.65927684 41.40591734 63.1810914 37.875 64.125 C37.21628906 64.30675781 36.55757812 64.48851562 35.87890625 64.67578125 C34.25423544 65.12315437 32.62732107 65.56236535 31 66 C32.155 66.474375 33.31 66.94875 34.5 67.4375 C35.1496875 67.70433594 35.799375 67.97117187 36.46875 68.24609375 C42.63105328 70.08147111 48.99580589 70.16589695 55.375 70.125 C56.47992798 70.12209961 56.47992798 70.12209961 57.60717773 70.11914062 C63.12449655 70.07554939 68.52280683 69.69551659 74 69 C72.30257934 72.39484133 68.84232322 73.04081035 65.40869141 74.30053711 C54.03776035 77.98283344 39.60607815 77.79900362 28.51171875 73.3359375 C22.15370321 69.95422472 16.87221003 65.26725408 12 60 C11.51917969 59.48953125 11.03835937 58.9790625 10.54296875 58.453125 C-0.47951662 46.28653355 -3.92027146 31.0341659 -3.33984375 14.953125 C-2.88996637 9.7200686 -1.78895859 4.93028468 0 0 Z " fill="#C29D45" transform="translate(172,126)"/>
<path d="M0 0 C0.33 0 0.66 0 1 0 C1 9.57 1 19.14 1 29 C3.97 30.65 6.94 32.3 10 34 C16.10950524 38.30330256 20.29765329 43.55923116 24 50 C24.41507813 50.67546875 24.83015625 51.3509375 25.2578125 52.046875 C29.97208405 60.81607942 28.89576601 71.40665952 26.4609375 80.7578125 C24.71739736 89.23910097 25.75453667 95.60467678 30 103 C29.67 103.66 29.34 104.32 29 105 C23.59722322 99.43028349 18 93.15867119 18 85 C16.948125 84.9175 15.89625 84.835 14.8125 84.75 C10.65416866 83.9319676 8.96265494 82.96265494 6 80 C4.28881894 77.10965684 3.66112099 74.6548409 3.2890625 71.33203125 C3.17820312 70.43806641 3.06734375 69.54410156 2.953125 68.62304688 C2.73672868 66.76950937 2.52566929 64.91533992 2.3203125 63.06054688 C1.275397 54.7665301 -1.46971736 48.02193809 -6 41 C0.47712599 43.54458521 3.28502242 49.98845791 6.6328125 55.6953125 C7.70136665 57.4965895 8.83824976 59.25737463 10 61 C10.08159574 56.83861737 9.98248524 53.0527516 9 49 C13.55744786 52.90638388 16.74745236 57.96942836 17.25 64 C17.1675 64.66 17.085 65.32 17 66 C16.195625 66.226875 15.39125 66.45375 14.5625 66.6875 C11.79741974 67.74766998 11.79741974 67.74766998 11.0625 70.375 C10.99437797 73.23612509 11.49248037 74.60570412 13 77 C15.91634129 77.2502157 15.91634129 77.2502157 19 77 C22.22661161 72.16008259 21.57685363 66.99693487 20.5 61.40234375 C17.74396571 51.27078586 12.63017281 43.89391102 3.5390625 38.5546875 C-0.92027501 36.21119181 -4.90486801 34.40224726 -10 34 C-9.42727071 30.71253386 -8.61704192 27.91162589 -7.25 24.875 C-3.93618209 16.88285092 -2.09764179 8.37337336 0 0 Z " fill="#B59039" transform="translate(96,94)"/>
<path d="M0 0 C3.14645401 0.11161178 6.29189157 0.24180557 9.4375 0.375 C10.31599609 0.4059375 11.19449219 0.436875 12.09960938 0.46875 C24.48550675 1.01720302 24.48550675 1.01720302 29 3 C32.18030406 8.01189278 31.70546831 15.53594419 32.125 21.375 C32.21136719 22.49261719 32.29773438 23.61023438 32.38671875 24.76171875 C32.59792285 27.50737208 32.80212987 30.25335893 33 33 C35.0655473 26.23411279 35.23960929 20.04406312 35.125 13 C35.11597656 11.93910156 35.10695312 10.87820312 35.09765625 9.78515625 C35.07427651 7.19000532 35.03841241 4.59497195 35 2 C45.395 1.505 45.395 1.505 56 1 C53.46948132 3.53051868 52.07916288 4.64373604 49 6.125 C48.319375 6.45757812 47.63875 6.79015625 46.9375 7.1328125 C45 8 45 8 42 9 C41.89042969 9.825 41.78085938 10.65 41.66796875 11.5 C39.49236609 27.34829252 36.38762708 41.935567 31 57 C27.535 56.505 27.535 56.505 24 56 C24 53.69 24 51.38 24 49 C24.33 49 24.66 49 25 49 C25.04988404 44.6075182 25.08594581 40.21519176 25.10986328 35.82250977 C25.1198467 34.3319206 25.13343822 32.84135064 25.15087891 31.35083008 C25.24231453 23.32869906 25.22943527 15.78546884 23 8 C21.02 8 19.04 8 17 8 C17.33773437 8.6290625 17.67546875 9.258125 18.0234375 9.90625 C25.02409174 23.34103154 25.02409174 23.34103154 23 30 C22.29037109 28.44152344 22.29037109 28.44152344 21.56640625 26.8515625 C16.49748512 16.03760454 11.35813642 6.15835135 0 1 C0 0.67 0 0.34 0 0 Z " fill="#2A2C2B" transform="translate(53,69)"/>
<path d="M0 0 C0.66 0 1.32 0 2 0 C2.268125 0.7734375 2.53625 1.546875 2.8125 2.34375 C5.6674354 9.93186776 8.84707682 14.77283774 15 20 C16.45923809 21.24894367 17.91760061 22.49891123 19.375 23.75 C20.34566406 24.54664063 20.34566406 24.54664063 21.3359375 25.359375 C23.11456204 27.11294849 24.01809901 28.71881589 25 31 C24.13117188 30.96519531 23.26234375 30.93039063 22.3671875 30.89453125 C13.7602784 30.60578182 13.7602784 30.60578182 6 34 C4.515 34.495 4.515 34.495 3 35 C3 35.66 3 36.32 3 37 C6.3 37 9.6 37 13 37 C13.33 37.66 13.66 38.32 14 39 C13.40832031 39.08636719 12.81664062 39.17273438 12.20703125 39.26171875 C6.75531142 40.23111102 3.34150298 41.25722157 0 46 C-0.66680368 49.04279372 -0.66680368 49.04279372 0 52 C0.495 52.639375 0.99 53.27875 1.5 53.9375 C3.20884635 56.28716373 3.54546992 57.93600394 3.421875 60.828125 C2.66434638 64.72799454 0.97342734 68.2455479 -0.62890625 71.86328125 C-2.30299074 75.69316685 -3.70969746 79.58948687 -5.10546875 83.52734375 C-6.01534653 86.04242077 -6.99376469 88.52209013 -8 91 C-8.33 91 -8.66 91 -9 91 C-9.25296012 85.85647755 -9.06931998 81.78925551 -7.5 76.875 C-5.41057189 69.90695436 -4.70824232 61.15685942 -6.49609375 54.01953125 C-7.27555633 50.89563857 -7.25158816 47.83729809 -7.3125 44.625 C-7.34988281 43.33851563 -7.38726562 42.05203125 -7.42578125 40.7265625 C-6.81803475 35.40738669 -4.50872359 32.42717097 -0.6875 28.8125 C2.45068428 26.69605014 5.47992209 25.38042271 9 24 C8.43410156 23.44570312 7.86820313 22.89140625 7.28515625 22.3203125 C6.55167969 21.59585938 5.81820312 20.87140625 5.0625 20.125 C3.96615234 19.04605469 3.96615234 19.04605469 2.84765625 17.9453125 C1 16 1 16 0 14 C0.33 16.97 0.66 19.94 1 23 C0.34 23 -0.32 23 -1 23 C-4.07796127 19.3301231 -4.50298448 16.04195665 -4.37109375 11.42578125 C-3.73517308 7.26886826 -1.95404229 3.68999951 0 0 Z " fill="#C59F43" transform="translate(134,96)"/>
<path d="M0 0 C3.82465205 3.4220571 6.02115839 5.91002361 7 11 C7.14804497 15.92031821 6.73816757 19.04237721 3.6875 23 C1.29328947 24.78173807 -0.07838001 25.67537556 -3 26 C-2.67 25.484375 -2.34 24.96875 -2 24.4375 C-0.6421768 21.12780596 -0.67785502 18.54359483 -1 15 C-2.59173078 12.83082746 -3.5014472 12.10025246 -6.15625 11.56640625 C-6.9296875 11.56511719 -7.703125 11.56382812 -8.5 11.5625 C-9.2734375 11.54316406 -10.046875 11.52382812 -10.84375 11.50390625 C-13.13179146 11.83466308 -13.13179146 11.83466308 -14.75390625 13.69921875 C-17.31522083 18.42841715 -16.78147861 24.16898314 -15.37890625 29.25 C-12.93219003 34.81763868 -8.72907963 38.32692844 -4 42 C-6.02378982 48.07136946 -13.83684705 50.85049843 -19.234375 53.71875 C-26.06752996 57.05359117 -32.44226703 59.12154607 -40 60 C-36.00442641 56.77096331 -31.59195266 54.78758818 -26.97265625 52.59765625 C-21.90872976 49.8760453 -18.69029603 47.097403 -16 42 C-16.48210937 41.40832031 -16.96421875 40.81664062 -17.4609375 40.20703125 C-18.09257812 39.41683594 -18.72421875 38.62664062 -19.375 37.8125 C-20.00148438 37.03519531 -20.62796875 36.25789063 -21.2734375 35.45703125 C-25.94382771 28.81070672 -25.74214124 21.88525072 -25 14 C-23.375 10.4375 -23.375 10.4375 -21 8 C-20.154375 7.05125 -19.30875 6.1025 -18.4375 5.125 C-14.83193004 2.26445852 -11.12418812 2.52182809 -6.68359375 2.62890625 C-3.85709312 3.0197615 -1.59373481 3.83211579 1 5 C0.505 2.525 0.505 2.525 0 0 Z " fill="#E0B85D" transform="translate(283,140)"/>
<path d="M0 0 C0.33 0 0.66 0 1 0 C1.01417969 1.23492187 1.02835938 2.46984375 1.04296875 3.7421875 C1.45302163 21.43781717 4.05090721 40.14611671 17.24609375 53.2265625 C19 55 19 55 19 57 C19.5878125 57.27070313 20.175625 57.54140625 20.78125 57.8203125 C22.97114562 58.98465841 24.61267402 60.27739511 26.5 61.875 C40.17444233 72.03742709 57.96865061 69.82730757 74 68 C72.23765198 71.52469605 68.34294518 72.08428089 64.76635742 73.29833984 C52.91633425 76.88112777 38.61225904 77.14115458 27.43359375 71.48046875 C23.70197812 69.21035266 20.278203 66.8933406 17 64 C16.33355469 63.42636719 15.66710937 62.85273438 14.98046875 62.26171875 C4.21620271 52.32072354 -2.30147069 38.34342382 -3.12451172 23.79980469 C-3.20418897 21.53221992 -3.23451277 19.26887929 -3.25 17 C-3.270625 16.24460938 -3.29125 15.48921875 -3.3125 14.7109375 C-3.35063893 9.16172249 -2.20023438 5.09527961 0 0 Z " fill="#08090A" transform="translate(167,132)"/>
<path d="M0 0 C0.33 0.66 0.66 1.32 1 2 C0.22265625 3.8125 0.22265625 3.8125 -0.9375 6 C-3.29229356 11.07752361 -3.79050175 15.46648775 -3 21 C-1.61500925 24.62735672 -0.12660316 27.6237816 3 30 C5.10332891 30.71447643 5.10332891 30.71447643 7 31 C6.47731534 33.76276177 5.89130413 36.3260876 5 39 C4.87656778 41.74134352 4.8148571 44.44619362 4.8125 47.1875 C4.80025391 47.91775391 4.78800781 48.64800781 4.77539062 49.40039062 C4.75795714 55.96119086 5.86736451 61.98334074 8.625 68 C9.07875 68.99 9.5325 69.98 10 71 C9.83886719 70.47535156 9.67773438 69.95070313 9.51171875 69.41015625 C8.86905009 66.38323591 8.83009652 63.53096757 8.8125 60.4375 C8.79832031 59.30183594 8.78414062 58.16617188 8.76953125 56.99609375 C9 54 9 54 11 51 C12.26305335 56.07476794 13.27036084 60.72796354 13 66 C14.485 66.495 14.485 66.495 16 67 C16.73818373 68.87901314 17.46458908 70.76402706 18.11328125 72.67578125 C19.36706674 75.96213529 21.11095033 78.90136835 22.859375 81.9453125 C24.12616557 84.22727085 25.12736138 86.5407457 26 89 C19.3543669 90.74885081 19.3543669 90.74885081 16.19140625 89 C3.09422051 76.90098315 -2.05653569 58.10628938 -2.8125 40.9375 C-2.90961325 37.95701584 -2.96607663 34.98217295 -3 32 C-3.99 32 -4.98 32 -6 32 C-9.10948077 28.42985541 -9.51855691 25.08564305 -9.3515625 20.53125 C-8.25906982 12.66530268 -4.904798 6.1309975 0 0 Z " fill="#0C0B09" transform="translate(175,96)"/>
<path d="M0 0 C0.33 0.66 0.66 1.32 1 2 C0.39671875 2.17015625 -0.2065625 2.3403125 -0.828125 2.515625 C-7.22499493 4.44940684 -7.22499493 4.44940684 -12 9 C-13.30765478 12.92296433 -13.1971417 15.86002433 -13 20 C-11.10892859 22.33278733 -11.10892859 22.33278733 -7.9375 22.1875 C-5.11166864 22.33187793 -5.11166864 22.33187793 -4 21 C-3.95919217 19.00041636 -3.95745644 16.99954746 -4 15 C-5.98 15.33 -7.96 15.66 -10 16 C-9.64505955 13.37344067 -9.27538036 11.42031739 -7.8125 9.1875 C-5.16311918 7.45169877 -3.10014468 7.74165461 0 8 C0.99 8.33 1.98 8.66 3 9 C3.38929688 8.55269531 3.77859375 8.10539062 4.1796875 7.64453125 C8.69658568 2.76336708 13.598782 -0.94131682 20 -3 C22.30078125 -2.625 22.30078125 -2.625 24 -2 C23.03900391 -1.39865234 23.03900391 -1.39865234 22.05859375 -0.78515625 C13.76389068 4.66635501 6.40178182 11.45835149 4.25 21.5 C3 25 3 25 0.3125 27.4375 C-3.42012213 29.19817082 -5.92216562 29.32622675 -10 29 C-8.68 31.97 -7.36 34.94 -6 38 C-12.59827714 36.40041766 -16.2281389 30.51489963 -19.9375 25.25 C-21.72626805 19.77847421 -22.30620893 13.39998501 -20.203125 7.92578125 C-18.41910789 5.09193869 -17.19979075 4.06659692 -14 3 C-14 2.34 -14 1.68 -14 1 C-19.28 0.67 -24.56 0.34 -30 0 C-21.90222084 -5.39851944 -8.43647189 -4.56364981 0 0 Z " fill="#D4AE52" transform="translate(160,72)"/>
<path d="M0 0 C0.66 0 1.32 0 2 0 C2.94902133 9.01570262 -0.42577436 15.92607959 -4 24 C-3.10796875 23.96003906 -2.2159375 23.92007813 -1.296875 23.87890625 C7.01749575 24.18429191 13.9527632 29.96600219 19.796875 35.4609375 C25.58015114 42.12606071 28.08827766 50.34297042 28.25 59.0625 C28.27578125 59.89910156 28.3015625 60.73570312 28.328125 61.59765625 C27.92564214 64.54440577 27.05633446 65.87640226 25 68 C22 68.5625 22 68.5625 19 68 C17.0625 65.8125 17.0625 65.8125 16 63 C16.23728007 59.5989856 16.569534 58.430466 19 56 C20.32 56 21.64 56 23 56 C21.34292168 50.35086937 19.52237988 45.73699363 16 41 C16.33 41.99 16.66 42.98 17 44 C17.03954234 46.33299825 17.04401732 48.66708189 17 51 C16.01 51 15.02 51 14 51 C13.70867187 50.3709375 13.41734375 49.741875 13.1171875 49.09375 C9.89763969 42.37117219 6.29701918 36.29701918 1 31 C-1.42715206 30.32059533 -1.42715206 30.32059533 -4.125 29.875 C-5.03507812 29.70742187 -5.94515625 29.53984375 -6.8828125 29.3671875 C-7.58148438 29.24601562 -8.28015625 29.12484375 -9 29 C-8.41229512 25.62218106 -7.55323258 22.70205259 -6.1875 19.5625 C-3.56124622 13.20369507 -1.79599426 6.62989369 0 0 Z " fill="#0C0B09" transform="translate(90,104)"/>
<path d="M0 0 C0.66 0.66 1.32 1.32 2 2 C2.66 1.67 3.32 1.34 4 1 C4 2.32 4 3.64 4 5 C4.99 5 5.98 5 7 5 C7 4.34 7 3.68 7 3 C10.37462715 3.54723683 12.08235 4.0549 15 6 C13.329375 6.4021875 13.329375 6.4021875 11.625 6.8125 C7.78159049 7.65809019 7.78159049 7.65809019 6 11 C5.66042437 15.07490752 5.68667514 16.53001271 8 20 C11.08365871 20.2502157 11.08365871 20.2502157 14 20 C14.33 19.01 14.66 18.02 15 17 C15.99 17.33 16.98 17.66 18 18 C18.42968373 23.96869763 17.11426638 27.89678363 14.5625 33.25 C9.15930724 44.97653321 8.75302588 55.41797529 12 68 C6.85513277 63.24315349 5.31415256 56.87058707 4.87451172 50.05444336 C4.28494936 34.2753075 4.28494936 34.2753075 8 27 C7.278125 26.95875 6.55625 26.9175 5.8125 26.875 C1.83391804 25.63721895 0.39255176 23.32298855 -2 20 C-3.86602738 14.40191786 -3.85898614 8.32737362 -1.5 2.875 C-0.7575 1.451875 -0.7575 1.451875 0 0 Z " fill="#D3AD51" transform="translate(174,100)"/>
<path d="M0 0 C0 3 0 3 -1.8125 5.25 C-7.3177527 12.17088911 -7.92632971 19.83735821 -9.0625 28.375 C-9.37850955 30.73809148 -9.70229476 33.1001608 -10.03515625 35.4609375 C-10.1731665 36.50040527 -10.31117676 37.53987305 -10.45336914 38.61083984 C-10.63375732 39.3992627 -10.81414551 40.18768555 -11 41 C-11.99 41.495 -11.99 41.495 -13 42 C-13.20302734 41.10861328 -13.20302734 41.10861328 -13.41015625 40.19921875 C-16.48405053 28.36380544 -22.69359277 19.61590333 -33 13 C-38.83576047 9.78110048 -44.32116422 7.44525572 -51 7 C-51 6.67 -51 6.34 -51 6 C-38.74837988 5.40477959 -28.67545526 6.01703576 -19.14453125 14.6328125 C-18 16 -18 16 -18 18 C-17.34 18 -16.68 18 -16 18 C-15.95875 17.154375 -15.9175 16.30875 -15.875 15.4375 C-14.47062608 9.92031673 -11.35060692 6.52368331 -6.6015625 3.4453125 C-4.4269882 2.23111802 -2.24304741 1.08164731 0 0 Z " fill="#EEC66C" transform="translate(286,69)"/>
<path d="M0 0 C0.33 0 0.66 0 1 0 C1 9.57 1 19.14 1 29 C3.97 30.65 6.94 32.3 10 34 C17.10815416 39.00671278 22.61208271 45.97348567 26 54 C26 55.32 26 56.64 26 58 C25.01 58.33 24.02 58.66 23 59 C22.34 59.66 21.68 60.32 21 61 C20.5875 60.07058594 20.175 59.14117187 19.75 58.18359375 C14.38857901 46.53017915 8.19417789 39.85734753 -4 35 C-7.39521568 34.14938651 -7.39521568 34.14938651 -10 34 C-9.42727071 30.71253386 -8.61704192 27.91162589 -7.25 24.875 C-3.93618209 16.88285092 -2.09764179 8.37337336 0 0 Z " fill="#BA963E" transform="translate(96,94)"/>
<path d="M0 0 C3.14645401 0.11161178 6.29189157 0.24180557 9.4375 0.375 C10.31599609 0.4059375 11.19449219 0.436875 12.09960938 0.46875 C16.4376832 0.66084183 20.74516834 0.97814578 25.03515625 1.6640625 C25.75195557 1.77443848 26.46875488 1.88481445 27.20727539 1.99853516 C29 3 29 3 30.2355957 5.5 C31.18581708 9.85080603 31.24959266 13.89793902 31.1953125 18.3359375 C31.1924826 19.21528961 31.18965271 20.09464172 31.18673706 21.00064087 C31.17559712 23.79223594 31.15050411 26.5835029 31.125 29.375 C31.1149622 31.27473493 31.10583775 33.17447492 31.09765625 35.07421875 C31.07567806 39.71627107 31.0411911 44.35808002 31 49 C30.67 49 30.34 49 30 49 C29.93006836 48.38181396 29.86013672 47.76362793 29.78808594 47.12670898 C28.47698997 35.77055215 27.05286213 24.73465549 23.76953125 13.765625 C23 11 23 11 23 8 C21.02 8 19.04 8 17 8 C17.33773437 8.6290625 17.67546875 9.258125 18.0234375 9.90625 C25.02409174 23.34103154 25.02409174 23.34103154 23 30 C22.29037109 28.44152344 22.29037109 28.44152344 21.56640625 26.8515625 C16.49748512 16.03760454 11.35813642 6.15835135 0 1 C0 0.67 0 0.34 0 0 Z " fill="#C49F42" transform="translate(53,69)"/>
<path d="M0 0 C0.95519531 -0.020625 1.91039062 -0.04125 2.89453125 -0.0625 C9.02855942 -0.09615722 13.52133933 0.7329893 19.125 3.25 C19.125 3.58 19.125 3.91 19.125 4.25 C18.32835937 4.27578125 17.53171875 4.3015625 16.7109375 4.328125 C8.14452568 4.69976785 8.14452568 4.69976785 1.125 9.25 C-3.28175649 15.3982582 -4.41176481 22.97816451 -5.875 30.25 C-8.28172854 26.63990719 -8.17295107 23.98024719 -8.125 19.8125 C-8.13015625 18.49378906 -8.1353125 17.17507812 -8.140625 15.81640625 C-7.90207499 12.6135216 -7.5838407 10.90141553 -5.875 8.25 C-6.81859375 8.21261719 -7.7621875 8.17523438 -8.734375 8.13671875 C-29.95710794 7.05001255 -29.95710794 7.05001255 -36.875 1.25 C-36.30056152 1.25523682 -35.72612305 1.26047363 -35.13427734 1.26586914 C-32.50619623 1.28678576 -29.87813271 1.29970659 -27.25 1.3125 C-26.34636719 1.32087891 -25.44273437 1.32925781 -24.51171875 1.33789062 C-16.27806463 1.36794046 -8.25742113 0.04421645 0 0 Z " fill="#D1AD5A" transform="translate(257.875,133.75)"/>
<path d="M0 0 C7.13622427 5.04757326 12.24075695 12.70913159 15 21 C15.18198998 22.64050968 15.30726106 24.28831723 15.375 25.9375 C15.80988152 30.65105455 16.59205112 33.50685239 20 37 C21.49514 37.27759033 22.99606126 37.5249039 24.5 37.75 C26.87890625 38.37109375 26.87890625 38.37109375 29 40 C31.14998661 44.99206416 31.76678633 50.53207099 32.60498047 55.86572266 C33.12624417 58.68209302 34.00285086 61.31935231 35 64 C29.26788359 58.75920786 24.60034929 53.00465726 24 45 C22.948125 44.9175 21.89625 44.835 20.8125 44.75 C16.65416866 43.9319676 14.96265494 42.96265494 12 40 C10.41349752 37.27185531 9.67488627 34.92057484 9.25390625 31.8046875 C9.14054932 31.01078613 9.02719238 30.21688477 8.91040039 29.39892578 C8.79559326 28.56603027 8.68078613 27.73313477 8.5625 26.875 C6.80787174 13.41378086 6.80787174 13.41378086 0 2 C0 1.34 0 0.68 0 0 Z " fill="#060708" transform="translate(85,139)"/>
<path d="M0 0 C0.33 0 0.66 0 1 0 C1.14695313 0.93199219 1.29390625 1.86398438 1.4453125 2.82421875 C4.07486877 17.77037476 9.4046921 31.7463044 22 41 C24.29946691 42.41684324 26.62143761 43.71557631 29 45 C25.80626843 48.19373157 21.93170168 48.90188182 17.5390625 49.125 C15.35560786 49.125 13.18150585 49.08904106 11 49 C10.91363281 48.443125 10.82726562 47.88625 10.73828125 47.3125 C9.7707379 42.05758568 8.20438049 38.3185045 5.234375 33.8984375 C-0.78025076 24.64809535 -1.60936244 14.71344198 -1 4 C-0.48828125 1.609375 -0.48828125 1.609375 0 0 Z " fill="#C6A249" transform="translate(190,141)"/>
<path d="M0 0 C2.12890625 0.4140625 2.12890625 0.4140625 4.69140625 1.9765625 C6.65467933 5.30559077 6.54358451 7.61284513 6.12890625 11.4140625 C4.12890625 14.4140625 4.12890625 14.4140625 1.12890625 15.4140625 C2.44890625 16.0740625 3.76890625 16.7340625 5.12890625 17.4140625 C1.92553803 20.24781131 -0.65196628 20.9346162 -4.87109375 21.4140625 C-4.87109375 22.0740625 -4.87109375 22.7340625 -4.87109375 23.4140625 C-3.88109375 23.0840625 -2.89109375 22.7540625 -1.87109375 22.4140625 C-2.53109375 23.7340625 -3.19109375 25.0540625 -3.87109375 26.4140625 C-8.14168309 22.48062495 -10.48686079 19.52366878 -11.20703125 13.6953125 C-11.2675991 9.38288151 -11.22462954 6.19798968 -9.43359375 2.2265625 C-6.1658 -0.08480381 -3.939109 -0.2465999 0 0 Z " fill="#22282E" transform="translate(276.87109375,150.5859375)"/>
<path d="M0 0 C0.66 0 1.32 0 2 0 C2.268125 0.7734375 2.53625 1.546875 2.8125 2.34375 C5.6674354 9.93186776 8.84707682 14.77283774 15 20 C16.45923809 21.24894367 17.91760061 22.49891123 19.375 23.75 C20.34566406 24.54664063 20.34566406 24.54664063 21.3359375 25.359375 C23 27 23 27 25 31 C19.39 31 13.78 31 8 31 C8.33 28.69 8.66 26.38 9 24 C7.46333057 21.53833537 7.46333057 21.53833537 5.125 19.6875 C1.02660407 16.05320814 1.02660407 16.05320814 0 14 C0.33 16.97 0.66 19.94 1 23 C0.34 23 -0.32 23 -1 23 C-4.07796127 19.3301231 -4.50298448 16.04195665 -4.37109375 11.42578125 C-3.73517308 7.26886826 -1.95404229 3.68999951 0 0 Z " fill="#CBA64A" transform="translate(134,96)"/>
<path d="M0 0 C10.04797819 -0.70512128 21.15134375 1.01229072 29.0625 7.625 C31.12109375 9.75 31.12109375 9.75 33 12 C33.63035156 12.7425 34.26070313 13.485 34.91015625 14.25 C39.42639876 20.50484156 39.40357365 25.65708419 38.625 33.19140625 C38.41875 34.11824219 38.2125 35.04507813 38 36 C37.01 36.495 37.01 36.495 36 37 C35.70609375 35.89205078 35.70609375 35.89205078 35.40625 34.76171875 C32.03970176 23.34157452 26.24230781 14.29998556 16 8 C15.25492188 7.53851563 14.50984375 7.07703125 13.7421875 6.6015625 C9.25401432 3.96951518 5.06381296 2.18514771 0 1 C0 0.67 0 0.34 0 0 Z " fill="#080809" transform="translate(232,79)"/>
<path d="M0 0 C0.33 0 0.66 0 1 0 C1.14695312 1.19496094 1.14695312 1.19496094 1.296875 2.4140625 C2.73830036 12.62830082 6.01843012 17.67752049 14 24 C11.97621018 30.07136946 4.16315295 32.85049843 -1.234375 35.71875 C-8.06752996 39.05359117 -14.44226703 41.12154607 -22 42 C-18.00442641 38.77096331 -13.59195266 36.78758818 -8.97265625 34.59765625 C-3.90872976 31.8760453 -0.69029603 29.097403 2 24 C0.35 22.02 -1.3 20.04 -3 18 C-2.01 17.67 -1.02 17.34 0 17 C-0.33 16.2575 -0.66 15.515 -1 14.75 C-2 12 -2 12 -2 8 C-1.34 8 -0.68 8 0 8 C0 5.36 0 2.72 0 0 Z M0 10 C1 14 1 14 1 14 Z " fill="#D5B057" transform="translate(265,158)"/>
<path d="M0 0 C4.00523949 19.47786109 3.56847821 34.53857184 -4 53 C-4.33 53 -4.66 53 -5 53 C-5.34625925 42.70840556 -5.34625925 42.70840556 -4 37.75 C-2.23982706 30.8840772 -1.75450319 21.73649044 -4 15 C-4.1441942 13.00346488 -4.2205659 11.00151894 -4.25 9 C-4.27578125 7.948125 -4.3015625 6.89625 -4.328125 5.8125 C-4 3 -4 3 -2.546875 1.125 C-1 0 -1 0 0 0 Z " fill="#090807" transform="translate(126,135)"/>
<path d="M0 0 C0.93423645 3.01031744 1.04449911 3.86650268 0 7 C3.2925863 6.9177535 6.58350012 6.80505357 9.875 6.6875 C11.25171875 6.65366211 11.25171875 6.65366211 12.65625 6.61914062 C18.44194497 6.39504681 23.36237486 5.5144724 28.81298828 3.53442383 C31.26647915 2.93488247 32.63696677 3.19113366 35 4 C33.13032395 4.98929461 31.25398622 5.96600469 29.375 6.9375 C28.33085937 7.48277344 27.28671875 8.02804688 26.2109375 8.58984375 C15.70416408 13.20413232 -0.09049926 12.1251174 -11 9 C-13.15425999 8.13745449 -14.99945019 7.1895161 -17 6 C-17 5.67 -17 5.34 -17 5 C-15.94039062 4.72285156 -14.88078125 4.44570312 -13.7890625 4.16015625 C-12.40101131 3.794386 -11.01299213 3.42849428 -9.625 3.0625 C-8.92632812 2.88009766 -8.22765625 2.69769531 -7.5078125 2.50976562 C-3.66044902 1.51487491 -3.66044902 1.51487491 0 0 Z " fill="#323431" transform="translate(219,186)"/>
<path d="M0 0 C0.66 0 1.32 0 2 0 C2.94902133 9.01570262 -0.42577436 15.92607959 -4 24 C-2.64261719 23.94585937 -2.64261719 23.94585937 -1.2578125 23.890625 C4.2638822 24.07600564 8.27933528 26.65704217 12.5625 30 C14 32 14 32 13.875 34.125 C13 36 13 36 11 38 C10.278125 37.401875 9.55625 36.80375 8.8125 36.1875 C3.00139995 31.66775551 -1.80465903 30.18758055 -9 29 C-8.41229512 25.62218106 -7.55323258 22.70205259 -6.1875 19.5625 C-3.56124622 13.20369507 -1.79599426 6.62989369 0 0 Z " fill="#070709" transform="translate(90,104)"/>
<path d="M0 0 C18.315 0.495 18.315 0.495 37 1 C36.01 3.64 35.02 6.28 34 9 C33.35638563 11.7734554 33.35638563 11.7734554 33.05078125 14.375 C32.92509766 15.29667969 32.79941406 16.21835938 32.66992188 17.16796875 C32.55197266 18.10253906 32.43402344 19.03710938 32.3125 20 C32.18294922 20.96550781 32.05339844 21.93101562 31.91992188 22.92578125 C31.60486435 25.28287831 31.29842471 27.64074959 31 30 C30.67 30 30.34 30 30 30 C29.03691387 25.93962888 28.83479143 22.10599699 28.8125 17.9375 C28.79832031 16.72964844 28.78414062 15.52179688 28.76953125 14.27734375 C28.98505134 11.21257502 29.38480898 9.56004585 31 7 C29.27716797 6.97873047 29.27716797 6.97873047 27.51953125 6.95703125 C17.31440314 6.69160541 9.31689706 5.46091714 0 1 C0 0.67 0 0.34 0 0 Z " fill="#050608" transform="translate(216,140)"/>
<path d="M0 0 C0.33 0 0.66 0 1 0 C2.26305335 5.07476794 3.27036084 9.72796354 3 15 C3.99 15.33 4.98 15.66 6 16 C6.73818373 17.87901314 7.46458908 19.76402706 8.11328125 21.67578125 C9.36706674 24.96213529 11.11095033 27.90136835 12.859375 30.9453125 C14.12616557 33.22727085 15.12736138 35.5407457 16 38 C13.36 38.33 10.72 38.66 8 39 C7.66226563 38.31292969 7.32453125 37.62585938 6.9765625 36.91796875 C6.53054687 36.01691406 6.08453125 35.11585938 5.625 34.1875 C5.18414062 33.29417969 4.74328125 32.40085938 4.2890625 31.48046875 C2.98133095 28.85443619 2.98133095 28.85443619 1 26 C1 24 1 22 1 20 C0.67386719 19.4121875 0.34773437 18.824375 0.01171875 18.21875 C-1.35933651 15.211957 -1.22867116 12.72744991 -1.1875 9.4375 C-1.18105469 8.30183594 -1.17460937 7.16617188 -1.16796875 5.99609375 C-1 3 -1 3 0 0 Z " fill="#0F0F0C" transform="translate(185,147)"/>
<path d="M0 0 C-1.39365 0.79550392 -2.79003431 1.58621838 -4.1875 2.375 C-4.96480469 2.81585938 -5.74210937 3.25671875 -6.54296875 3.7109375 C-8.97944983 4.98921851 -11.42977507 6.02304061 -14 7 C-14.10957031 7.87140625 -14.21914062 8.7428125 -14.33203125 9.640625 C-15.39098628 17.59570183 -16.87413029 25.26183424 -19 33 C-19.33 33 -19.66 33 -20 33 C-20.33 22.11 -20.66 11.22 -21 0 C-18.2775 -0.185625 -15.555 -0.37125 -12.75 -0.5625 C-11.89889648 -0.62381104 -11.04779297 -0.68512207 -10.17089844 -0.74829102 C-9.4905957 -0.79139404 -8.81029297 -0.83449707 -8.109375 -0.87890625 C-7.41811523 -0.9260376 -6.72685547 -0.97316895 -6.01464844 -1.02172852 C-3.86382928 -0.99853136 -2.05915129 -0.5995764 0 0 Z " fill="#CBA548" transform="translate(109,71)"/>
<path d="M0 0 C1.38938077 1.96147874 2.7260411 3.96166576 4 6 C-4.00165359 11.2582295 -11.27341007 15.15783184 -21.08203125 15.09765625 C-22.01337891 15.09443359 -22.94472656 15.09121094 -23.90429688 15.08789062 C-24.86400391 15.07951172 -25.82371094 15.07113281 -26.8125 15.0625 C-28.28106445 15.05573242 -28.28106445 15.05573242 -29.77929688 15.04882812 C-32.18626111 15.03708684 -34.59309857 15.02066419 -37 15 C-37 14.34 -37 13.68 -37 13 C-35.98421875 12.91363281 -34.9684375 12.82726562 -33.921875 12.73828125 C-22.48013877 11.62773107 -8.48050495 0 0 0 Z " fill="#D3AD52" transform="translate(256,178)"/>
<path d="M0 0 C0.66 0 1.32 0 2 0 C2.09796875 0.7734375 2.1959375 1.546875 2.296875 2.34375 C3.74350051 12.42024495 6.95666058 18.94221411 13 27 C12.01 28.32 11.02 29.64 10 31 C6.54537888 30.74410214 5.72618453 29.71373837 3.25 27.125 C1 24 1 24 1 21 C0.34 21 -0.32 21 -1 21 C-2.25433458 17.23699626 -2.10695422 13.72789091 -2.0625 9.8125 C-2.05798828 9.06291016 -2.05347656 8.31332031 -2.04882812 7.54101562 C-2.03706354 5.69397617 -2.01912865 3.84697787 -2 2 C-1.34 2 -0.68 2 0 2 C0 1.34 0 0.68 0 0 Z " fill="#080808" transform="translate(255,156)"/>
<path d="M0 0 C1.32 0.33 2.64 0.66 4 1 C4.69257309 7.09464317 2.82627331 11.32000048 0.37109375 16.86328125 C-1.30299074 20.69316685 -2.70969746 24.58948687 -4.10546875 28.52734375 C-5.01534653 31.04242077 -5.99376469 33.52209013 -7 36 C-7.33 36 -7.66 36 -8 36 C-8.25300808 30.85550237 -8.05688446 26.69017387 -6.5625 21.75 C-4.70025267 15.55714921 -4.29668921 9.43508671 -4 3 C-1 2 -1 2 0 2 C0 1.34 0 0.68 0 0 Z " fill="#B8933E" transform="translate(133,151)"/>
<path d="M0 0 C0.33 0 0.66 0 1 0 C1.00257813 0.82242188 1.00515625 1.64484375 1.0078125 2.4921875 C1.30074895 10.94828646 3.11334168 16.15590184 8 23 C8.33 23.66 8.66 24.32 9 25 C8.34 25.33 7.68 25.66 7 26 C8.32 28.64 9.64 31.28 11 34 C5.06965894 31.03482947 1.51069716 26.89483526 -0.875 20.6875 C-2 17 -2 17 -2 15 C-2.99 15.33 -3.98 15.66 -5 16 C-5.51709447 10.93247421 -5.60129894 7.19880426 -2.5625 2.9375 C-1.2940625 1.4834375 -1.2940625 1.4834375 0 0 Z " fill="#16130D" transform="translate(138,81)"/>
<path d="M0 0 C0.99 0.33 1.98 0.66 3 1 C1.50923566 4.2826932 -0.38620321 6.93077441 -2.625 9.75 C-3.25664062 10.54921875 -3.88828125 11.3484375 -4.5390625 12.171875 C-5.02117187 12.77515625 -5.50328125 13.3784375 -6 14 C-3.03 14.495 -3.03 14.495 0 15 C-0.75 17.4375 -0.75 17.4375 -2 20 C-4.91475617 21.07385754 -7.66805369 21.10782274 -10.75 21.0625 C-11.54921875 21.05347656 -12.3484375 21.04445313 -13.171875 21.03515625 C-13.77515625 21.02355469 -14.3784375 21.01195313 -15 21 C-14.43555175 16.65136348 -12.84572036 13.82172345 -10.4375 10.1875 C-9.79683594 9.21167969 -9.15617188 8.23585938 -8.49609375 7.23046875 C-7.75552734 6.12638672 -7.75552734 6.12638672 -7 5 C-5.35 5.33 -3.7 5.66 -2 6 C-1.855625 5.195625 -1.71125 4.39125 -1.5625 3.5625 C-1 1 -1 1 0 0 Z " fill="#282C30" transform="translate(198,79)"/>
<path d="M0 0 C10.01046025 -0.62133891 10.01046025 -0.62133891 13.6875 1.6875 C15 4 15 4 14.9296875 6.31640625 C15.0143787 9.54878705 15.96098955 11.38899957 17.4375 14.25 C19.87379632 19.32217623 20.72471222 23.40248172 21 29 C18.44245115 26.44245115 17.4497829 23.78912594 15.9375 20.5 C12.65177564 13.62638516 8.43684703 8.36309135 3 3 C2.41734375 2.41605469 1.8346875 1.83210938 1.234375 1.23046875 C0.82703125 0.82441406 0.4196875 0.41835937 0 0 Z " fill="#050709" transform="translate(51,75)"/>
<path d="M0 0 C6.6 0.33 13.2 0.66 20 1 C20 1.33 20 1.66 20 2 C17.69 2 15.38 2 13 2 C13.33 3.65 13.66 5.3 14 7 C15.98 7 17.96 7 20 7 C19.01 7.33 18.02 7.66 17 8 C17.33773437 8.6290625 17.67546875 9.258125 18.0234375 9.90625 C25.02409174 23.34103154 25.02409174 23.34103154 23 30 C22.29037109 28.44152344 22.29037109 28.44152344 21.56640625 26.8515625 C16.49748512 16.03760454 11.35813642 6.15835135 0 1 C0 0.67 0 0.34 0 0 Z " fill="#B08F3E" transform="translate(53,69)"/>
<path d="M0 0 C0 0.33 0 0.66 0 1 C-0.69867188 1.13277344 -1.39734375 1.26554687 -2.1171875 1.40234375 C-3.02726562 1.57894531 -3.93734375 1.75554687 -4.875 1.9375 C-5.77992188 2.11152344 -6.68484375 2.28554687 -7.6171875 2.46484375 C-9.99956317 2.89963701 -9.99956317 2.89963701 -12 4 C-11.01 4.66 -10.02 5.32 -9 6 C-10.08539063 6.31453125 -11.17078125 6.6290625 -12.2890625 6.953125 C-13.73453277 7.38488885 -15.17983657 7.81721025 -16.625 8.25 C-17.33785156 8.45496094 -18.05070313 8.65992187 -18.78515625 8.87109375 C-23.46080352 10.28665669 -26.94074068 12.21446721 -31 15 C-31.99 15 -32.98 15 -34 15 C-30.95706723 8.19728973 -24.53264441 4.07889737 -17.9765625 0.90234375 C-12.12768696 -0.87074057 -6.03957924 -0.36237475 0 0 Z " fill="#22282C" transform="translate(237,73)"/>
<path d="M0 0 C1.98 0 3.96 0 6 0 C8.39900819 6.1402437 9.42640884 11.39816049 9.29296875 17.97265625 C9.28872391 18.78117538 9.28447906 19.58969452 9.28010559 20.42271423 C9.26350035 22.96966873 9.22588533 25.5157904 9.1875 28.0625 C9.17242958 29.80402492 9.15874534 31.54556241 9.14648438 33.28710938 C9.11365684 37.52505361 9.06200455 41.76238632 9 46 C8.67 46 8.34 46 8 46 C5.70387244 31.40318907 5.70387244 31.40318907 6 24 C6.66 24 7.32 24 8 24 C7.23565759 21.45622013 6.46377703 18.91513859 5.6875 16.375 C5.47416016 15.66214844 5.26082031 14.94929688 5.04101562 14.21484375 C3.71413891 9.89754338 2.06474628 6.03261296 0 2 C0 1.34 0 0.68 0 0 Z " fill="#0D0B08" transform="translate(70,77)"/>
<path d="M0 0 C0.33 0 0.66 0 1 0 C1.09796875 1.12277344 1.1959375 2.24554688 1.296875 3.40234375 C2.09431011 11.65386341 2.96694914 18.60607342 7 26 C7.66 26 8.32 26 9 26 C8.8453125 27.2375 8.8453125 27.2375 8.6875 28.5 C9.06558353 32.7345355 10.54892202 34.79486033 13.00390625 38.16796875 C13.49697266 39.07482422 13.49697266 39.07482422 14 40 C13.67 40.99 13.34 41.98 13 43 C5.43385225 35.38785743 -1.16962855 27.34725599 -1.21484375 16.26953125 C-1.04314363 10.82506073 -0.60560719 5.41256875 0 0 Z " fill="#292C2C" transform="translate(178,141)"/>
<path d="M0 0 C4.00079252 0.08154769 8.00013481 0.1943323 12 0.3125 C13.68802734 0.34633789 13.68802734 0.34633789 15.41015625 0.38085938 C21.93517826 0.5907285 27.04733704 1.27899107 33 4 C33 4.33 33 4.66 33 5 C29.52099751 5.08825361 26.04228883 5.14080635 22.5625 5.1875 C21.58861328 5.21263672 20.61472656 5.23777344 19.61132812 5.26367188 C13.29947178 5.32700154 7.75173904 4.76521306 2 2 C1.34 1.34 0.68 0.68 0 0 Z M28 0 C31.3 0 34.6 0 38 0 C38 1.32 38 2.64 38 4 C36.68 4 35.36 4 34 4 C34 3.34 34 2.68 34 2 C32.35 2 30.7 2 29 2 C28.67 1.34 28.34 0.68 28 0 Z " fill="#E7BE5E" transform="translate(221,135)"/>
<path d="M0 0 C0.33 0.66 0.66 1.32 1 2 C0.39671875 2.18175781 -0.2065625 2.36351563 -0.828125 2.55078125 C-6.85585198 4.41987906 -6.85585198 4.41987906 -12 8 C-12.66 5.69 -13.32 3.38 -14 1 C-19.28 0.67 -24.56 0.34 -30 0 C-21.90222084 -5.39851944 -8.43647189 -4.56364981 0 0 Z " fill="#CEA952" transform="translate(160,72)"/>
<path d="M0 0 C1.65 0 3.3 0 5 0 C6.60725635 3.21451269 6.05748185 6.43612536 6 10 C5.34 9.67 4.68 9.34 4 9 C4 14.61 4 20.22 4 26 C3.34 26 2.68 26 2 26 C1.01 22.04 0.02 18.08 -1 14 C-1.33 16.64 -1.66 19.28 -2 22 C-2.33 22 -2.66 22 -3 22 C-3.30372936 13.99054432 -3.50848663 7.30934715 0 0 Z " fill="#3C3B35" transform="translate(186,136)"/>
<path d="M0 0 C3 1 3 1 4 3 C4.12969742 4.87340713 4.22938382 6.74894899 4.3125 8.625 C4.72184418 14.39744674 6.21836752 17.99306154 9 23 C8.67 23.66 8.34 24.32 8 25 C2.59722322 19.43028349 -3 13.15867119 -3 5 C-4.65 5 -6.3 5 -8 5 C-8 4.67 -8 4.34 -8 4 C-6.35 4 -4.7 4 -3 4 C-2.67 3.01 -2.34 2.02 -2 1 C-1.34 0.67 -0.68 0.34 0 0 Z " fill="#B28E36" transform="translate(117,174)"/>
<path d="M0 0 C-1.98 0.99 -1.98 0.99 -4 2 C2.435 4.97 2.435 4.97 9 8 C4.84561624 9.03859594 4.41665873 9.00480457 0.75 7.5625 C-4.75358222 5.72797259 -9.82995977 5.80980089 -15.55371094 6.11157227 C-20.6018491 6.30275236 -20.6018491 6.30275236 -22.97265625 4.5 C-23.31167969 4.005 -23.65070313 3.51 -24 3 C-16.19436658 -0.90281671 -8.51207047 -0.27891493 0 0 Z " fill="#403E35" transform="translate(246,74)"/>
<path d="M0 0 C6.09781001 -0.22084624 11.21642935 -0.01167675 17 2 C17 4.97 17 7.94 17 11 C16.01 10.67 15.02 10.34 14 10 C14 9.34 14 8.68 14 8 C11.30440472 7.21378471 8.65650177 6.81860838 5.875 6.5 C2 6 2 6 0 5 C-0.33 4.34 -0.66 3.68 -1 3 C-0.67 2.01 -0.34 1.02 0 0 Z " fill="#C9A246" transform="translate(66,71)"/>
<path d="M0 0 C3.20384459 0.05101663 4.45590103 0.17128111 7.25 1.875 C9.19392431 5.17121947 9.03584811 7.5503404 8.6875 11.3125 C8.3575 11.9725 8.0275 12.6325 7.6875 13.3125 C6.6975 13.3125 5.7075 13.3125 4.6875 13.3125 C1.6875 9.09027778 1.6875 9.09027778 1.6875 6.3125 C-0.9525 5.9825 -3.5925 5.6525 -6.3125 5.3125 C-5.27225294 0.7056916 -4.76265669 0.14810225 0 0 Z " fill="#0A0909" transform="translate(274.3125,150.6875)"/>
<path d="M0 0 C1.65 0 3.3 0 5 0 C5.32878217 10.84981163 5.11367639 20.50987598 2 31 C1.67 31 1.34 31 1 31 C0.34956362 20.6510926 -0.16494885 10.3734499 0 0 Z " fill="#0F0D0A" transform="translate(84,76)"/>
<path d="M0 0 C0.66 0 1.32 0 2 0 C3.32 3.63 4.64 7.26 6 11 C5.01 11.33 4.02 11.66 3 12 C1.79117904 14.00016466 1.79117904 14.00016466 1 16 C0.67 15.34 0.34 14.68 0 14 C0.33 16.97 0.66 19.94 1 23 C0.34 23 -0.32 23 -1 23 C-4.07796127 19.3301231 -4.50298448 16.04195665 -4.37109375 11.42578125 C-3.73517308 7.26886826 -1.95404229 3.68999951 0 0 Z " fill="#B89644" transform="translate(134,96)"/>
<path d="M0 0 C2.625 0.375 2.625 0.375 5 1 C5 1.33 5 1.66 5 2 C3.02 2.66 1.04 3.32 -1 4 C-2.00217064 7.58327753 -2.00217064 7.58327753 -1 11 C-0.34 10.34 0.32 9.68 1 9 C3.625 9.375 3.625 9.375 6 10 C6.125 12.875 6.125 12.875 6 16 C4 18 4 18 1.0625 18.3125 C-2 18 -2 18 -3.875 17 C-5.68030203 13.79057417 -5.52582009 10.54236694 -5 7 C-3.6038245 4.08072396 -2.27797004 2.27797004 0 0 Z " fill="#0F0E0A" transform="translate(151,77)"/>
<path d="M0 0 C9.34195014 -0.45385993 17.5254796 -0.557341 26 4 C27.796875 5.63671875 27.796875 5.63671875 29 7 C27.68 8.32 26.36 9.64 25 11 C22.577713 9.80388309 20.18285429 8.56903277 17.79296875 7.30859375 C16.59126856 6.6846594 15.38944247 6.06096749 14.1875 5.4375 C13.59646484 5.12103516 13.00542969 4.80457031 12.39648438 4.47851562 C8.16208489 2.30359506 4.6665069 1.43617798 0 1 C0 0.67 0 0.34 0 0 Z " fill="#ECC56C" transform="translate(235,75)"/>
<path d="M0 0 C-1.86967605 0.98929461 -3.74601378 1.96600469 -5.625 2.9375 C-7.19121094 3.75541016 -7.19121094 3.75541016 -8.7890625 4.58984375 C-14.42136144 7.06339596 -19.80444976 7.13897011 -25.875 7.0625 C-26.90753906 7.05573242 -26.90753906 7.05573242 -27.9609375 7.04882812 C-29.64066335 7.03716336 -31.32034375 7.01923271 -33 7 C-33 6.01 -33 5.02 -33 4 C-31.74445313 3.89042969 -30.48890625 3.78085938 -29.1953125 3.66796875 C-17.3369001 2.65414455 -17.3369001 2.65414455 -5.91015625 -0.51171875 C-3.61335283 -1.09883619 -2.22300408 -0.74100136 0 0 Z " fill="#0E0C09" transform="translate(254,190)"/>
<path d="M0 0 C1.32 0 2.64 0 4 0 C3.67 2.97 3.34 5.94 3 9 C3.66 9.33 4.32 9.66 5 10 C5 16.27 5 22.54 5 29 C0.09555944 24.09555944 -0.16112868 16.12853187 -0.20654297 9.50830078 C-0.1790355 6.33647788 -0.10739653 3.17018656 0 0 Z " fill="#050507" transform="translate(173,132)"/>
<path d="M0 0 C1.051875 0.1546875 1.051875 0.1546875 2.125 0.3125 C2.125 1.3025 2.125 2.2925 2.125 3.3125 C1.465 3.3125 0.805 3.3125 0.125 3.3125 C-0.205 4.3025 -0.535 5.2925 -0.875 6.3125 C-8.37085148 10.81688782 -16.23065679 13.30774668 -24.875 14.3125 C-21.77466346 11.80552931 -18.60147047 10.13284869 -15 8.4375 C-11.44783568 6.71105319 -8.3495455 5.11384469 -5.4375 2.4375 C-2.875 0.3125 -2.875 0.3125 0 0 Z " fill="#D5AE54" transform="translate(267.875,185.6875)"/>
<path d="M0 0 C1.1875 2.0625 1.1875 2.0625 2 4 C-4.0615263 6.13540594 -9.54876694 6.23853866 -15.9375 6.125 C-16.90751953 6.11597656 -17.87753906 6.10695312 -18.87695312 6.09765625 C-21.25156407 6.07426107 -23.62564776 6.04148176 -26 6 C-26 5.34 -26 4.68 -26 4 C-24.38931641 3.83564453 -24.38931641 3.83564453 -22.74609375 3.66796875 C-21.3098322 3.50838413 -19.87363767 3.34819558 -18.4375 3.1875 C-17.73302734 3.11724609 -17.02855469 3.04699219 -16.30273438 2.97460938 C-12.61809987 2.55011231 -9.54000825 1.92560694 -6.16015625 0.36328125 C-3 -1 -3 -1 0 0 Z " fill="#CFA94F" transform="translate(245,187)"/>
<path d="M0 0 C0.33 0 0.66 0 1 0 C1.33 4.29 1.66 8.58 2 13 C2.66 10.36 3.32 7.72 4 5 C4.33 5 4.66 5 5 5 C6.74077181 20.1216443 6.74077181 20.1216443 3 26 C2.01 26.66 1.02 27.32 0 28 C0 18.76 0 9.52 0 0 Z " fill="#3D3B2D" transform="translate(84,89)"/>
<path d="M0 0 C0.33 0 0.66 0 1 0 C1.33 1.98 1.66 3.96 2 6 C2.33 6 2.66 6 3 6 C3.08564209 6.64026123 3.17128418 7.28052246 3.25952148 7.94018555 C3.65052115 10.85618237 4.04398675 13.77184137 4.4375 16.6875 C4.57220703 17.69490234 4.70691406 18.70230469 4.84570312 19.74023438 C4.97783203 20.71669922 5.10996094 21.69316406 5.24609375 22.69921875 C5.42676392 24.04246216 5.42676392 24.04246216 5.61108398 25.4128418 C5.99437171 27.96255933 6.4730143 30.47643451 7 33 C2.13448661 29.06125106 0.74773477 22.94693725 0 17 C-0.11008476 14.03990454 -0.09512759 11.08658169 -0.0625 8.125 C-0.05798828 7.34125 -0.05347656 6.5575 -0.04882812 5.75 C-0.03714093 3.83329986 -0.01920908 1.91663952 0 0 Z " fill="#C7A249" transform="translate(179,135)"/>
<path d="M0 0 C2.375 1.5 2.375 1.5 4 3 C2.92598892 5.91517292 2.22189824 7.77810176 0 10 C-0.350625 9.525625 -0.70125 9.05125 -1.0625 8.5625 C-3.84163543 6.32126175 -6.5144717 6.32882342 -10 6 C-9.6875 4.125 -9.6875 4.125 -9 2 C-5.51131349 -0.32579101 -4.10281481 -0.41865457 0 0 Z " fill="#0F0E0C" transform="translate(190,106)"/>
<path d="M0 0 C0.66 0 1.32 0 2 0 C2 5.28 2 10.56 2 16 C1.34 15.34 0.68 14.68 0 14 C0.33 17.3 0.66 20.6 1 24 C-2.77160925 20.47172038 -4.13891325 17.97442181 -4.3125 12.8125 C-4.28722784 7.67382831 -2.55811442 4.39675916 0 0 Z " fill="#07090B" transform="translate(129,101)"/>
<path d="M0 0 C3.93673644 1.31224548 6.22719294 2.91910327 9 6 C9.66 5.34 10.32 4.68 11 4 C12.5912689 8.873261 13.21192221 12.80790596 13 18 C12.01 18 11.02 18 10 18 C9.69707031 17.3709375 9.39414063 16.741875 9.08203125 16.09375 C6.34946332 10.51090353 3.41098098 5.19630294 0 0 Z " fill="#282C2D" transform="translate(94,137)"/>
<path d="M0 0 C0.33 0 0.66 0 1 0 C0.98259766 0.90492187 0.98259766 0.90492187 0.96484375 1.828125 C0.95582031 2.62734375 0.94679687 3.4265625 0.9375 4.25 C0.92589844 5.03890625 0.91429687 5.8278125 0.90234375 6.640625 C0.99614694 8.90691002 1.36758937 10.8288895 2 13 C1.01 12.34 0.02 11.68 -1 11 C-0.1654738 13.50357861 0.79371992 15.66785852 2 18 C2.99 18 3.98 18 5 18 C6.32 20.64 7.64 23.28 9 26 C3.51810298 24.67105527 0.0422491 20.53883938 -3 16 C-4.20306729 11.91574078 -3.86146251 9.83242282 -2 6 C-1.34 6 -0.68 6 0 6 C0 4.02 0 2.04 0 0 Z " fill="#C9A64E" transform="translate(145,84)"/>
<path d="M0 0 C0.99 0.33 1.98 0.66 3 1 C1.52404517 5.48304037 -0.03228548 9.93216475 -1.625 14.375 C-1.85445312 15.01566406 -2.08390625 15.65632812 -2.3203125 16.31640625 C-2.87962276 17.87781405 -3.43972808 19.43893701 -4 21 C-4.33 21 -4.66 21 -5 21 C-5.34684531 13.94747877 -4.58052884 7.62888142 -2 1 C-1.34 0.67 -0.68 0.34 0 0 Z " fill="#B7923C" transform="translate(130,166)"/>
<path d="M0 0 C1.65 0.33 3.3 0.66 5 1 C4.71125 2.27875 4.4225 3.5575 4.125 4.875 C3.00617536 9.90171927 1.9916404 14.94685368 1 20 C-1.43044139 16.35433792 -1.26310692 13.64363257 -1.1875 9.4375 C-1.1865332 8.40979492 -1.1865332 8.40979492 -1.18554688 7.36132812 C-1.14067963 2.28135927 -1.14067963 2.28135927 0 0 Z " fill="#D2AD57" transform="translate(251,144)"/>
<path d="M0 0 C2 0.9375 2 0.9375 4.375 2.875 C7.18573631 5.08343567 9.58162838 5.98353583 13 6.9375 C13 7.2675 13 7.5975 13 7.9375 C-2.98275862 6.95474138 -2.98275862 6.95474138 -7 2.9375 C-2.6507177 -0.08283493 -2.6507177 -0.08283493 0 0 Z " fill="#CBA853" transform="translate(277,192.0625)"/>
<path d="M0 0 C3.92446674 3.80904125 7.47412292 7.81814579 11 12 C6.545 12.495 6.545 12.495 2 13 C0.54815522 8.46298506 -0.23509196 4.81938524 0 0 Z " fill="#0B0B0B" transform="translate(133,109)"/>
<path d="M0 0 C0 0.33 0 0.66 0 1 C-0.58265625 1.09796875 -1.1653125 1.1959375 -1.765625 1.296875 C-10.51182956 2.8920947 -18.77736768 5.64504619 -27 9 C-25.15212869 4.42431867 -22.47933336 3.05037373 -18.15234375 0.97265625 C-12.20084623 -0.86367941 -6.16935333 -0.3701612 0 0 Z " fill="#100F0D" transform="translate(237,73)"/>
<path d="M0 0 C0.33 0 0.66 0 1 0 C1 11.22 1 22.44 1 34 C0.67 34 0.34 34 0 34 C-2.29612756 19.40318907 -2.29612756 19.40318907 -2 12 C-1.34 12 -0.68 12 0 12 C-0.08378906 11.38511719 -0.16757813 10.77023438 -0.25390625 10.13671875 C-0.35574219 9.32847656 -0.45757812 8.52023438 -0.5625 7.6875 C-0.66691406 6.88699219 -0.77132812 6.08648437 -0.87890625 5.26171875 C-1 3 -1 3 0 0 Z " fill="#030407" transform="translate(78,89)"/>
<path d="M0 0 C2.69090053 1.26135963 4.73732906 3.02293228 7 4.9375 C7.99 5.5975 8.98 6.2575 10 6.9375 C3.90218999 7.15834624 -1.21642935 6.94917675 -7 4.9375 C-7 4.2775 -7 3.6175 -7 2.9375 C-2.96 -0.0925 -2.96 -0.0925 0 0 Z " fill="#06080B" transform="translate(272,197.0625)"/>
<path d="M0 0 C1.49080078 0.02707031 1.49080078 0.02707031 3.01171875 0.0546875 C3.77097656 0.07789063 4.53023438 0.10109375 5.3125 0.125 C5.3125 0.455 5.3125 0.785 5.3125 1.125 C2.0125 1.125 -1.2875 1.125 -4.6875 1.125 C-4.6875 1.785 -4.6875 2.445 -4.6875 3.125 C-3.0375 3.125 -1.3875 3.125 0.3125 3.125 C0.3125 3.785 0.3125 4.445 0.3125 5.125 C1.3025 5.455 2.2925 5.785 3.3125 6.125 C3.3125 6.785 3.3125 7.445 3.3125 8.125 C1.641875 8.3415625 1.641875 8.3415625 -0.0625 8.5625 C-3.50892047 8.90872035 -3.50892047 8.90872035 -5.6875 10.125 C-6.6775 7.485 -7.6675 4.845 -8.6875 2.125 C-5.26655758 -0.15562828 -4.00562778 -0.09425007 0 0 Z " fill="#CBA859" transform="translate(273.6875,142.875)"/>
<path d="M0 0 C0.99 0.33 1.98 0.66 3 1 C3 1.66 3 2.32 3 3 C3.66 3 4.32 3 5 3 C4.34034961 9.86036401 2.7637236 16.34443923 1 23 C0.67 23 0.34 23 0 23 C0 15.41 0 7.82 0 0 Z " fill="#AD8E40" transform="translate(89,81)"/>
<path d="M0 0 C0 3.94405202 -1.49401172 5.0517785 -4 8 C-4.99 9.485 -4.99 9.485 -6 11 C-6.99 10.67 -7.98 10.34 -9 10 C-9.928125 10.99 -9.928125 10.99 -10.875 12 C-13 14 -13 14 -15 14 C-13.60555541 8.73209822 -10.26469874 6.0727022 -6 3 C-2.5625 1.125 -2.5625 1.125 0 0 Z " fill="#DEBE6C" transform="translate(286,69)"/>
<path d="M0 0 C0.33 0.99 0.66 1.98 1 3 C0.34 3 -0.32 3 -1 3 C-1 6.63 -1 10.26 -1 14 C-5 13 -5 13 -6.3125 11.25 C-7.17403075 8.43044481 -6.88185116 6.79252868 -6 4 C-5.34 3.34 -4.68 2.68 -4 2 C-2.68 2 -1.36 2 0 2 C0 1.34 0 0.68 0 0 Z " fill="#2B2C2B" transform="translate(113,158)"/>
<path d="M0 0 C-0.66386719 0.43570313 -1.32773438 0.87140625 -2.01171875 1.3203125 C-7.1630745 4.79465754 -11.32467397 7.97705443 -15 13 C-16.1875 11.3125 -16.1875 11.3125 -17 9 C-15.66749202 4.66934907 -12.87474224 3.15782046 -9.0625 1.125 C-5.59312085 -0.6227717 -3.7083129 -1.39384383 0 0 Z " fill="#D3AF58" transform="translate(184,70)"/>
<path d="M0 0 C0.33 0 0.66 0 1 0 C1.33 3.96 1.66 7.92 2 12 C2.66 11.34 3.32 10.68 4 10 C4 13.96 4 17.92 4 22 C3.01 21.67 2.02 21.34 1 21 C0.34 21.33 -0.32 21.66 -1 22 C-1.11459026 14.58982977 -0.91160286 7.35793733 0 0 Z " fill="#34342E" transform="translate(249,149)"/>
<path d="M0 0 C-4.38512875 3.31558515 -7.37458159 4.54996653 -13 5 C-13.33 4.34 -13.66 3.68 -14 3 C-16.32156597 2.59270772 -18.6568787 2.25561323 -21 2 C-21 1.34 -21 0.68 -21 0 C-18.25034772 -0.19511725 -15.50057868 -0.38136433 -12.75 -0.5625 C-11.97269531 -0.61857422 -11.19539063 -0.67464844 -10.39453125 -0.73242188 C-9.64042969 -0.78076172 -8.88632813 -0.82910156 -8.109375 -0.87890625 C-7.41811523 -0.9260376 -6.72685547 -0.97316895 -6.01464844 -1.02172852 C-3.86382928 -0.99853136 -2.05915129 -0.5995764 0 0 Z " fill="#CEA74B" transform="translate(109,71)"/>
<path d="M0 0 C1.89492187 0.01353516 1.89492187 0.01353516 3.828125 0.02734375 C4.79234375 0.03894531 5.7565625 0.05054687 6.75 0.0625 C6.75 1.0525 6.75 2.0425 6.75 3.0625 C5.76 3.0625 4.77 3.0625 3.75 3.0625 C3.42 3.7225 3.09 4.3825 2.75 5.0625 C1.96882813 4.83240234 1.96882813 4.83240234 1.171875 4.59765625 C-1.88278515 3.92267489 -4.88015971 3.71838882 -8 3.5 C-9.17046875 3.41621094 -10.3409375 3.33242187 -11.546875 3.24609375 C-12.43890625 3.18550781 -13.3309375 3.12492187 -14.25 3.0625 C-9.43910622 -0.14476252 -5.75185764 -0.05325794 0 0 Z " fill="#B5974D" transform="translate(144.25,68.9375)"/>
<path d="M0 0 C0.66 0.66 1.32 1.32 2 2 C2.66 1.67 3.32 1.34 4 1 C4.33 2.98 4.66 4.96 5 7 C4.34 7 3.68 7 3 7 C2.566875 8.2065625 2.566875 8.2065625 2.125 9.4375 C1 12 1 12 -1 13 C-2.13350534 15.01669827 -2.13350534 15.01669827 -3 17 C-3.3540919 10.48208608 -3.03901852 5.82478551 0 0 Z " fill="#C19E4B" transform="translate(174,100)"/>
<path d="M0 0 C0.33 0.66 0.66 1.32 1 2 C4.02934491 2.65772428 4.02934491 2.65772428 7 3 C6.25 5.4375 6.25 5.4375 5 8 C3.1875 8.9375 3.1875 8.9375 1 9 C-1.75 8.0625 -1.75 8.0625 -4 7 C-2.92598892 4.08482708 -2.22189824 2.22189824 0 0 Z " fill="#08080B" transform="translate(191,91)"/>
<path d="M0 0 C2.68826864 0.11490912 5.37513469 0.24163199 8.0625 0.375 C8.81466797 0.4059375 9.56683594 0.436875 10.34179688 0.46875 C15.18961281 0.72058459 19.38308043 1.49168365 24 3 C24 3.33 24 3.66 24 4 C16.15310259 5.00663444 9.21629783 5.74851169 2 2 C1.34 1.34 0.68 0.68 0 0 Z " fill="#D3AE59" transform="translate(221,135)"/>
<path d="M0 0 C1.83590188 0.0377638 3.67051617 0.15454199 5.5 0.3125 C6.5003125 0.39113281 7.500625 0.46976563 8.53125 0.55078125 C9.75328125 0.77314453 9.75328125 0.77314453 11 1 C11.33 1.66 11.66 2.32 12 3 C11.12988281 3.12955078 11.12988281 3.12955078 10.2421875 3.26171875 C4.41168056 4.3104403 1.24345436 5.86535216 -3 10 C-3.66 8.35 -4.32 6.7 -5 5 C-4.34 5 -3.68 5 -3 5 C-2.5359375 4.0409375 -2.5359375 4.0409375 -2.0625 3.0625 C-1 1 -1 1 0 0 Z " fill="#B49341" transform="translate(136,132)"/>
<path d="M0 0 C1.875 2.5 1.875 2.5 3 5 C2.443125 4.98839844 1.88625 4.97679687 1.3125 4.96484375 C-3.89778343 4.90323567 -8.8437951 5.25000656 -14 6 C-14 5.34 -14 4.68 -14 4 C-9.80447654 0.25399692 -5.57203226 -0.71132327 0 0 Z " fill="#040506" transform="translate(151,127)"/>
<path d="M0 0 C0 0.66 0 1.32 0 2 C-6.67862176 5.01651083 -12.63927766 7.57534294 -20 8 C-17.84813189 3.69626377 -11.56144991 2.18714997 -7.25 0.75 C-4 0 -4 0 0 0 Z " fill="#0A0A0B" transform="translate(261,196)"/>
<path d="M0 0 C1.65 0.33 3.3 0.66 5 1 C4.34 6.28 3.68 11.56 3 17 C2.67 17 2.34 17 2 17 C2 14.03 2 11.06 2 8 C1.34 8 0.68 8 0 8 C0 8.66 0 9.32 0 10 C-0.66 10 -1.32 10 -2 10 C-1.54177532 6.53058454 -1.10868317 3.32604951 0 0 Z " fill="#23231D" transform="translate(255,148)"/>
<path d="M0 0 C0 0.33 0 0.66 0 1 C-0.92941406 1.06058594 -1.85882813 1.12117188 -2.81640625 1.18359375 C-11.94146885 1.79571552 -11.94146885 1.79571552 -21 3 C-17.23067262 -5.34636777 -7.33055035 -2.13252374 0 0 Z " fill="#0F1010" transform="translate(236,87)"/>
<path d="M0 0 C3.26011642 0.69378511 4.79038253 1.45893991 7 4 C7.33 2.68 7.66 1.36 8 0 C8.49230769 7.38461538 8.49230769 7.38461538 6 10.5 C5.34 10.995 4.68 11.49 4 12 C1.78600697 8.20458337 0.99019802 4.24370579 0 0 Z " fill="#B7943F" transform="translate(76,78)"/>
<path d="M0 0 C0.33 0 0.66 0 1 0 C1.13277344 0.83144531 1.26554687 1.66289062 1.40234375 2.51953125 C1.57894531 3.60621094 1.75554687 4.69289062 1.9375 5.8125 C2.19853516 7.43091797 2.19853516 7.43091797 2.46484375 9.08203125 C2.93871921 12.04933356 2.93871921 12.04933356 4 15 C3.67 15.99 3.34 16.98 3 18 C2.34 18 1.68 18 1 18 C1.33 18.99 1.66 19.98 2 21 C1.01 21 0.02 21 -1 21 C-1.66 19.68 -2.32 18.36 -3 17 C-2.01 17 -1.02 17 0 17 C-0.33 16.2575 -0.66 15.515 -1 14.75 C-2 12 -2 12 -2 8 C-1.34 8 -0.68 8 0 8 C0 5.36 0 2.72 0 0 Z M0 10 C1 14 1 14 1 14 Z " fill="#C8A655" transform="translate(265,158)"/>
<path d="M0 0 C0.33 0.66 0.66 1.32 1 2 C1.66 2.33 2.32 2.66 3 3 C2.01 6.3 1.02 9.6 0 13 C-1 11 -2 9 -3 7 C-3.66 7.99 -4.32 8.98 -5 10 C-5.33 8.35 -5.66 6.7 -6 5 C-5.34 5 -4.68 5 -4 5 C-3.71125 4.360625 -3.4225 3.72125 -3.125 3.0625 C-2 1 -2 1 0 0 Z " fill="#F3CC70" transform="translate(277,78)"/>
<path d="M0 0 C0.97582031 0.00902344 1.95164063 0.01804687 2.95703125 0.02734375 C4.06111328 0.04474609 4.06111328 0.04474609 5.1875 0.0625 C4.5275 1.3825 3.8675 2.7025 3.1875 4.0625 C-2.4225 3.7325 -8.0325 3.4025 -13.8125 3.0625 C-9.29595102 0.05146735 -5.33887619 -0.06432381 0 0 Z " fill="#101317" transform="translate(138.8125,73.9375)"/>
<path d="M0 0 C1.32 0 2.64 0 4 0 C4.48452463 6.94485303 2.69287491 13.2990368 1 20 C0.67 20 0.34 20 0 20 C0 13.4 0 6.8 0 0 Z " fill="#030406" transform="translate(85,87)"/>
<path d="M0 0 C2.41696872 -0.05411124 4.83271787 -0.09372278 7.25 -0.125 C7.93191406 -0.14175781 8.61382812 -0.15851563 9.31640625 -0.17578125 C13.0608235 -0.21213482 15.82352727 -0.07944349 19 2 C18.01 2.495 18.01 2.495 17 3 C17.99 3.99 18.98 4.98 20 6 C19.01 6.495 19.01 6.495 18 7 C15.64453125 6.0390625 15.64453125 6.0390625 12.8125 4.625 C8.40521417 2.53153923 4.84950679 1.32330045 0 1 C0 0.67 0 0.34 0 0 Z " fill="#D8B564" transform="translate(235,75)"/>
<path d="M0 0 C0.66 0.33 1.32 0.66 2 1 C2 1.66 2 2.32 2 3 C2.99 2.67 3.98 2.34 5 2 C4.67 5.63 4.34 9.26 4 13 C2.68 13.33 1.36 13.66 0 14 C0.45822468 10.53058454 0.89131683 7.32604951 2 4 C0.68 4 -0.64 4 -2 4 C-1.34 2.68 -0.68 1.36 0 0 Z " fill="#040406" transform="translate(175,128)"/>
<path d="M0 0 C2.625 0.375 2.625 0.375 5 1 C5 1.33 5 1.66 5 2 C3.02 2.66 1.04 3.32 -1 4 C-2.00217064 7.58327753 -2.00217064 7.58327753 -1 11 C-0.34 10.67 0.32 10.34 1 10 C1 11.32 1 12.64 1 14 C-0.98 14.33 -2.96 14.66 -5 15 C-5.27338445 9.62343913 -5.38994303 6.43300242 -2 2 C-1.34 1.34 -0.68 0.68 0 0 Z " fill="#1A191A" transform="translate(151,77)"/>
<path d="M0 0 C0.33 0 0.66 0 1 0 C1.08153933 1.58246707 1.13943557 3.16616273 1.1875 4.75 C1.22230469 5.63171875 1.25710937 6.5134375 1.29296875 7.421875 C0.94355103 10.49675097 0.17867997 11.82639854 -2 14 C-2.99 14 -3.98 14 -5 14 C-5 11.03 -5 8.06 -5 5 C-3.68 5.33 -2.36 5.66 -1 6 C-0.67 6.66 -0.34 7.32 0 8 C0 5.36 0 2.72 0 0 Z " fill="#16140F" transform="translate(117,158)"/>
<path d="M0 0 C0.33 0 0.66 0 1 0 C1 5.94 1 11.88 1 18 C0.34 17.67 -0.32 17.34 -1 17 C-1.66 17.66 -2.32 18.32 -3 19 C-3.38614349 12.1781317 -2.00865708 6.50422293 0 0 Z " fill="#A28741" transform="translate(172,126)"/>
<path d="M0 0 C0.66 0 1.32 0 2 0 C1.8837815 4.84948108 1.71728763 8.0694647 -1.3125 12 C-3.70671053 13.78173807 -5.07838001 14.67537556 -8 15 C-7.690625 14.46375 -7.38125 13.9275 -7.0625 13.375 C-5.82172561 10.6015043 -5.4090325 7.99957163 -5 5 C-4.67 5 -4.34 5 -4 5 C-4 6.65 -4 8.3 -4 10 C-3.34 10 -2.68 10 -2 10 C-1.34 6.7 -0.68 3.4 0 0 Z " fill="#CEAB5D" transform="translate(288,151)"/>
<path d="M0 0 C1.52519276 0.08937803 3.04681929 0.24537146 4.5625 0.4375 C5.38878906 0.53933594 6.21507812 0.64117187 7.06640625 0.74609375 C7.70449219 0.82988281 8.34257812 0.91367188 9 1 C6.42215154 3.64752004 4.08351902 5.94432065 1 8 C-0.32 7.34 -1.64 6.68 -3 6 C-1.125 1.125 -1.125 1.125 0 0 Z " fill="#2E3030" transform="translate(259,142)"/>
<path d="M0 0 C0 0.99 0 1.98 0 3 C-2.97 2.505 -2.97 2.505 -6 2 C-6 2.66 -6 3.32 -6 4 C-5.01 4 -4.02 4 -3 4 C-1.3125 6 -1.3125 6 0 8 C-0.66 8 -1.32 8 -2 8 C-2.33 9.32 -2.66 10.64 -3 12 C-3.33 10.35 -3.66 8.7 -4 7 C-5.98 7.33 -7.96 7.66 -10 8 C-9.64505955 5.37344067 -9.27538036 3.42031739 -7.8125 1.1875 C-5.20638339 -0.51995571 -3.0400645 -0.20267097 0 0 Z " fill="#C9A750" transform="translate(160,80)"/>
<path d="M0 0 C0.33 0 0.66 0 1 0 C1.33 6.27 1.66 12.54 2 19 C1.34 19 0.68 19 0 19 C-0.99 15.04 -1.98 11.08 -3 7 C-3.33 7 -3.66 7 -4 7 C-4 5.35 -4 3.7 -4 2 C-3.01 2.33 -2.02 2.66 -1 3 C-0.67 2.01 -0.34 1.02 0 0 Z " fill="#1D232A" transform="translate(188,143)"/>
<path d="M0 0 C4.2026393 2.63886654 7.56638098 5.36440339 11 9 C10.67 9.66 10.34 10.32 10 11 C9.34 10.34 8.68 9.68 8 9 C6.68 9 5.36 9 4 9 C3.34 9.66 2.68 10.32 2 11 C1.31292445 8.50935112 1 6.62113708 1 4 C0.6937566 2.66018514 0.36548445 1.32488113 0 0 Z " fill="#121215" transform="translate(101,133)"/>
<path d="M0 0 C1.13199353 0.9080162 2.25532363 1.82683826 3.375 2.75 C4.00148437 3.26046875 4.62796875 3.7709375 5.2734375 4.296875 C7.08312318 6.08199481 8.00117455 7.67949644 9 10 C6.36 9.67 3.72 9.34 1 9 C1.99 8.34 2.98 7.68 4 7 C4 6.34 4 5.68 4 5 C2.68 4.34 1.36 3.68 0 3 C0 2.01 0 1.02 0 0 Z M-4 4 C-3.34 4 -2.68 4 -2 4 C-1.67 4.99 -1.34 5.98 -1 7 C-2.65 7.33 -4.3 7.66 -6 8 C-5.34 6.68 -4.68 5.36 -4 4 Z M-1 4 C-0.01 4.495 -0.01 4.495 1 5 C0.01 5.495 0.01 5.495 -1 6 C-1 5.34 -1 4.68 -1 4 Z " fill="#C4A04B" transform="translate(150,117)"/>
<path d="M0 0 C1.06671952 3.20015856 0.94845472 4.88544294 0.5625 8.1875 C0.46066406 9.08855469 0.35882813 9.98960938 0.25390625 10.91796875 C0.12822266 11.94857422 0.12822266 11.94857422 0 13 C-1.32 13.33 -2.64 13.66 -4 14 C-4.43177893 7.73920552 -3.92739438 4.90924297 0 0 Z " fill="#040406" transform="translate(138,81)"/>
<path d="M0 0 C-6.93 0 -13.86 0 -21 0 C-21 -0.66 -21 -1.32 -21 -2 C-13.2305504 -2.89860182 -7.18266247 -3.59133123 0 0 Z " fill="#B59547" transform="translate(240,193)"/>
<path d="M0 0 C0.33 0 0.66 0 1 0 C1.10957031 0.88042969 1.21914062 1.76085937 1.33203125 2.66796875 C1.49058594 3.82941406 1.64914063 4.99085938 1.8125 6.1875 C1.96332031 7.33605469 2.11414063 8.48460937 2.26953125 9.66796875 C3.00560914 13.02558608 4.21022129 15.11276385 6 18 C5.67 18.66 5.34 19.32 5 20 C2.11447574 17.60712622 -0.17767068 15.29517082 -2 12 C-2.02564372 7.79442911 -1.1738135 4.02450341 0 0 Z " fill="#997D31" transform="translate(120,179)"/>
<path d="M0 0 C-0.66 1.65 -1.32 3.3 -2 5 C-1.01 5.33 -0.02 5.66 1 6 C0.21625 6.309375 -0.5675 6.61875 -1.375 6.9375 C-3.92330128 7.92875038 -3.92330128 7.92875038 -6 9 C-6.33 8.01 -6.66 7.02 -7 6 C-6.34 5.34 -5.68 4.68 -5 4 C-5.99 3.01 -6.98 2.02 -8 1 C-4.93251126 -0.86240388 -3.40254489 -1.2151946 0 0 Z " fill="#B89641" transform="translate(144,122)"/>
<path d="M0 0 C2.64194427 2.64194427 2.85205998 4.3014996 3 8 C1.0625 10.375 1.0625 10.375 -1 12 C-1 10.68 -1 9.36 -1 8 C-1.99 8.495 -1.99 8.495 -3 9 C-3.66 8.34 -4.32 7.68 -5 7 C-4.34 7 -3.68 7 -3 7 C-2.690625 6.21625 -2.38125 5.4325 -2.0625 4.625 C-1 2 -1 2 0 0 Z " fill="#D9B359" transform="translate(198,94)"/>
<path d="M0 0 C0.33 0.66 0.66 1.32 1 2 C1.66 2.33 2.32 2.66 3 3 C2.67 4.32 2.34 5.64 2 7 C0.68 7.33 -0.64 7.66 -2 8 C-2.33 7.34 -2.66 6.68 -3 6 C-3.33 6.66 -3.66 7.32 -4 8 C-6.97 7.505 -6.97 7.505 -10 7 C-9.67 6.34 -9.34 5.68 -9 5 C-8.01 5 -7.02 5 -6 5 C-5.34 4.34 -4.68 3.68 -4 3 C-3.01 2.67 -2.02 2.34 -1 2 C-0.67 1.34 -0.34 0.68 0 0 Z " fill="#D0AC55" transform="translate(202,86)"/>
<path d="M0 0 C-0.33 0.66 -0.66 1.32 -1 2 C-2.99226169 2.28919928 -4.98722182 2.57264551 -6.9921875 2.75390625 C-9.20329268 2.9575063 -9.20329268 2.9575063 -12 4 C-14.00875442 3.72428861 -16.01178687 3.39764263 -18 3 C-14.93344745 0.95563163 -13.12890332 0.45609789 -9.5625 -0.1875 C-8.61503906 -0.36667969 -7.66757813 -0.54585938 -6.69140625 -0.73046875 C-4.10788261 -0.98919608 -2.43945237 -0.81315079 0 0 Z " fill="#4A4739" transform="translate(240,82)"/>
<path d="M0 0 C7.42511009 -0.70048208 12.4509858 1.62918387 19 5 C14.83326479 6.79341438 11.25336659 5.01173384 7.25 3.5625 C6.20392578 3.19801758 6.20392578 3.19801758 5.13671875 2.82617188 C3.42114902 2.22689752 1.71010285 1.61470115 0 1 C0 0.67 0 0.34 0 0 Z " fill="#23282F" transform="translate(236,77)"/>
<path d="M0 0 C0.66 0.33 1.32 0.66 2 1 C1.25234375 1.54269531 0.5046875 2.08539063 -0.265625 2.64453125 C-1.25046875 3.35996094 -2.2353125 4.07539062 -3.25 4.8125 C-4.22453125 5.52019531 -5.1990625 6.22789063 -6.203125 6.95703125 C-8.48189009 8.62154821 -10.74765822 10.30001823 -13 12 C-12.80859375 9.703125 -12.80859375 9.703125 -12 7 C-9.78515625 5.234375 -9.78515625 5.234375 -7.0625 3.75 C-6.16660156 3.24984375 -5.27070313 2.7496875 -4.34765625 2.234375 C-2.90545687 1.47608049 -1.45738111 0.72869055 0 0 Z " fill="#CAA959" transform="translate(206,70)"/>
<path d="M0 0 C-1 3 -1 3 -4 5 C-7.1875 5.125 -7.1875 5.125 -10 5 C-9.01906046 2.54765115 -8.31296172 1.2190732 -6.125 -0.3125 C-3.64990694 -1.1132654 -2.41712366 -0.86325845 0 0 Z " fill="#E2BB63" transform="translate(218,73)"/>
<path d="M0 0 C0.66 0 1.32 0 2 0 C2.96070434 2.88211302 3.10581883 4.69850044 3.0625 7.6875 C3.05347656 8.49574219 3.04445313 9.30398437 3.03515625 10.13671875 C3.02355469 10.75160156 3.01195313 11.36648437 3 12 C1 11 1 11 -2 9 C-2 8.34 -2 7.68 -2 7 C-1.34 7 -0.68 7 0 7 C-0.185625 6.030625 -0.37125 5.06125 -0.5625 4.0625 C-0.706875 3.051875 -0.85125 2.04125 -1 1 C-0.67 0.67 -0.34 0.34 0 0 Z " fill="#030304" transform="translate(114,154)"/>
<path d="M0 0 C0.33 0.66 0.66 1.32 1 2 C1.66 2 2.32 2 3 2 C3 1.34 3 0.68 3 0 C4.98 0 6.96 0 9 0 C5.80009492 2.74277578 2.99500618 4.6302836 -1 6 C-1.66 5.34 -2.32 4.68 -3 4 C-2.67 3.01 -2.34 2.02 -2 1 C-1.34 0.67 -0.68 0.34 0 0 Z " fill="#2C2F32" transform="translate(205,72)"/>
<path d="M0 0 C1.32 0 2.64 0 4 0 C3.86722656 0.56847656 3.73445312 1.13695312 3.59765625 1.72265625 C2.5115242 6.47151097 1.61687618 11.16780324 1 16 C0.67 16 0.34 16 0 16 C0 10.72 0 5.44 0 0 Z " fill="#21262B" transform="translate(173,132)"/>
<path d="M0 0 C4 0 4 0 7 1 C5.515 2.485 5.515 2.485 4 4 C4.99 5.32 5.98 6.64 7 8 C2.61031544 8 1.23094261 5.87194899 -2 3 C-1.34 2.67 -0.68 2.34 0 2 C0 1.34 0 0.68 0 0 Z " fill="#B49140" transform="translate(104,131)"/>
<path d="M0 0 C0.99 0.66 1.98 1.32 3 2 C-0.465 3.485 -0.465 3.485 -4 5 C-4.33 4.34 -4.66 3.68 -5 3 C-7.31 3 -9.62 3 -12 3 C-7.97869817 0.31913211 -4.73968522 -1.57989507 0 0 Z " fill="#2F3131" transform="translate(245,198)"/>
<path d="M0 0 C0 0.66 0 1.32 0 2 C-2.8471742 3.93607846 -4.15417196 3.98954766 -7.6875 3.75 C-8.780625 3.5025 -9.87375 3.255 -11 3 C-11.33 2.34 -11.66 1.68 -12 1 C-7.9472484 0.01751476 -4.16138263 -0.08159574 0 0 Z " fill="#15120E" transform="translate(214,190)"/>
<path d="M0 0 C3.93846154 3.32307692 3.93846154 3.32307692 4.25 6.75 C4.1675 7.4925 4.085 8.235 4 9 C2.68 9 1.36 9 0 9 C-1.10844919 5.67465243 -0.84454356 3.37817425 0 0 Z " fill="#030306" transform="translate(188,164)"/>
<path d="M0 0 C0.66 0 1.32 0 2 0 C3.25664978 2.90600261 4 4.79604584 4 8 C2.35 8 0.7 8 -1 8 C-0.67 7.01 -0.34 6.02 0 5 C-0.99 4.67 -1.98 4.34 -3 4 C-1.625 2 -1.625 2 0 0 Z " fill="#E3BA5F" transform="translate(264,146)"/>
<path d="M0 0 C3.14958831 3.42346555 3.56179109 6.44262737 4 11 C3.67 10.01 3.34 9.02 3 8 C1.68 8.33 0.36 8.66 -1 9 C-1.80967438 6.08517222 -2.21845993 4.53886783 -1.0625 1.6875 C-0.711875 1.130625 -0.36125 0.57375 0 0 Z " fill="#15100D" transform="translate(113,146)"/>
<path d="M0 0 C0.66 0.33 1.32 0.66 2 1 C0.87926138 1.83905565 -0.24674547 2.67107831 -1.375 3.5 C-2.31472656 4.19609375 -2.31472656 4.19609375 -3.2734375 4.90625 C-5 6 -5 6 -7 6 C-7 6.66 -7 7.32 -7 8 C-8.65 7.67 -10.3 7.34 -12 7 C-8.44008172 4.03340143 -4.34777457 1.618652 0 0 Z " fill="#211C14" transform="translate(271,189)"/>
<path d="M0 0 C0.61875 0.350625 1.2375 0.70125 1.875 1.0625 C2.57625 1.371875 3.2775 1.68125 4 2 C4.66 1.67 5.32 1.34 6 1 C7.32 3.64 8.64 6.28 10 9 C5.57238086 7.60846256 3.0443745 5.47928514 0 2 C0 1.34 0 0.68 0 0 Z " fill="#BE9C49" transform="translate(144,101)"/>
<path d="M0 0 C1.125 1.75 1.125 1.75 2 4 C1.125 6.25 1.125 6.25 0 8 C0.99 8.33 1.98 8.66 3 9 C0.69 9.33 -1.62 9.66 -4 10 C-3.43454163 6.04179141 -2.19097652 3.3340947 0 0 Z " fill="#353634" transform="translate(187,90)"/>
<path d="M0 0 C2.64 0 5.28 0 8 0 C8 0.33 8 0.66 8 1 C10.31 1.33 12.62 1.66 15 2 C15 2.33 15 2.66 15 3 C10.05 3 5.1 3 0 3 C0 2.01 0 1.02 0 0 Z " fill="#1E1D1C" transform="translate(221,194)"/>
<path d="M0 0 C0.66 0 1.32 0 2 0 C3.33257403 9.41002278 3.33257403 9.41002278 2 14 C-0.28062828 10.57905758 -0.21925007 9.31812778 -0.125 5.3125 C-0.10695312 4.31863281 -0.08890625 3.32476562 -0.0703125 2.30078125 C-0.04710937 1.54152344 -0.02390625 0.78226563 0 0 Z " fill="#DAB559" transform="translate(250,150)"/>
<path d="M0 0 C-4.95 2.97 -4.95 2.97 -10 6 C-10.33 4.68 -10.66 3.36 -11 2 C-4.5 -1.125 -4.5 -1.125 0 0 Z " fill="#BD9E54" transform="translate(184,70)"/>
<path d="M0 0 C0.33 0 0.66 0 1 0 C1 2.64 1 5.28 1 8 C1.99 8.33 2.98 8.66 4 9 C3.67 10.98 3.34 12.96 3 15 C2.67 14.01 2.34 13.02 2 12 C1.34 12 0.68 12 0 12 C-0.33 12.66 -0.66 13.32 -1 14 C-0.67 9.38 -0.34 4.76 0 0 Z " fill="#18150D" transform="translate(124,158)"/>
<path d="M0 0 C9.41002278 -0.18451025 9.41002278 -0.18451025 14 1 C13.34 2.32 12.68 3.64 12 5 C10.56068883 4.54738642 9.12361001 4.08767021 7.6875 3.625 C6.88699219 3.36976562 6.08648437 3.11453125 5.26171875 2.8515625 C3 2 3 2 0 0 Z " fill="#0B0D10" transform="translate(232,79)"/>
<path d="M0 0 C2.8125 -0.1875 2.8125 -0.1875 6 0 C6.99 0.99 7.98 1.98 9 3 C5.7 3.66 2.4 4.32 -1 5 C-0.34 4.67 0.32 4.34 1 4 C0.67 2.68 0.34 1.36 0 0 Z " fill="#D5AF57" transform="translate(152,71)"/>
<path d="M0 0 C0 0.66 0 1.32 0 2 C-1.76774419 2.53122363 -3.53934083 3.04964073 -5.3125 3.5625 C-6.29863281 3.85253906 -7.28476563 4.14257812 -8.30078125 4.44140625 C-11 5 -11 5 -14 4 C-4.58997722 -0.59225513 -4.58997722 -0.59225513 0 0 Z " fill="#A88B46" transform="translate(257,195)"/>
<path d="M0 0 C0.33 0 0.66 0 1 0 C1.36552803 1.41377782 1.71695495 2.83120576 2.0625 4.25 C2.25972656 5.03890625 2.45695313 5.8278125 2.66015625 6.640625 C3.01497267 9.10394822 2.76877544 10.65604132 2 13 C1.67 12.34 1.34 11.68 1 11 C0.34 11 -0.32 11 -1 11 C-1.125 3.375 -1.125 3.375 0 0 Z " fill="#050709" transform="translate(185,147)"/>
<path d="M0 0 C1 2 1 2 0.44140625 3.9453125 C0.15136719 4.66460937 -0.13867188 5.38390625 -0.4375 6.125 C-0.72496094 6.84945312 -1.01242187 7.57390625 -1.30859375 8.3203125 C-1.53675781 8.87460938 -1.76492188 9.42890625 -2 10 C-2.66 10 -3.32 10 -4 10 C-5.125 4.375 -5.125 4.375 -4 1 C-1.9375 0.3125 -1.9375 0.3125 0 0 Z " fill="#222422" transform="translate(272,77)"/>
<path d="M0 0 C0.78375 0.04125 1.5675 0.0825 2.375 0.125 C2.375 2.74613708 2.06207555 4.63435112 1.375 7.125 C-0.605 5.475 -2.585 3.825 -4.625 2.125 C-2.625 0.125 -2.625 0.125 0 0 Z " fill="#2B2F32" transform="translate(265.625,77.875)"/>
<path d="M0 0 C0.33 0.66 0.66 1.32 1 2 C-2.63 2 -6.26 2 -10 2 C-10 1.34 -10 0.68 -10 0 C-6.64338305 -1.67830848 -3.63864406 -0.6353188 0 0 Z " fill="#0C0C0C" transform="translate(270,141)"/>
<path d="M0 0 C2.97 0.33 5.94 0.66 9 1 C7.25 3.0625 7.25 3.0625 5 5 C2.75 4.75 2.75 4.75 1 4 C0.67 2.68 0.34 1.36 0 0 Z " fill="#100D0A" transform="translate(149,100)"/>
<path d="M0 0 C0.66 0 1.32 0 2 0 C1.88652381 1.97986082 1.7589065 3.95891598 1.625 5.9375 C1.52058594 7.59072266 1.52058594 7.59072266 1.4140625 9.27734375 C1.27742188 10.17582031 1.14078125 11.07429688 1 12 C0.01 12.495 0.01 12.495 -1 13 C-1.07654536 8.48382401 -1.10228696 4.40914783 0 0 Z " fill="#373936" transform="translate(278,84)"/>
<path d="M0 0 C0.33 0 0.66 0 1 0 C2.51708428 9.41002278 2.51708428 9.41002278 0 14 C-0.33 14 -0.66 14 -1 14 C-1.18451025 4.58997722 -1.18451025 4.58997722 0 0 Z " fill="#A68637" transform="translate(126,173)"/>
<path d="M0 0 C1.921875 0.6796875 1.921875 0.6796875 4 2 C4.828125 4.3828125 4.828125 4.3828125 5.25 7.125 C5.39953125 8.03507813 5.5490625 8.94515625 5.703125 9.8828125 C5.80109375 10.58148438 5.8990625 11.28015625 6 12 C3.32098068 9.68118495 2.33795597 7.68185532 1.3125 4.3125 C1.06113281 3.50425781 0.80976563 2.69601563 0.55078125 1.86328125 C0.36902344 1.24839844 0.18726563 0.63351563 0 0 Z " fill="#B99745" transform="translate(180,156)"/>
<path d="M0 0 C2.8125 -0.1875 2.8125 -0.1875 6 0 C6.99 0.99 7.98 1.98 9 3 C5.7 3 2.4 3 -1 3 C-0.67 2.01 -0.34 1.02 0 0 Z " fill="#111315" transform="translate(136,138)"/>
<path d="M0 0 C0.90105469 0.00902344 1.80210937 0.01804687 2.73046875 0.02734375 C3.41753906 0.03894531 4.10460937 0.05054687 4.8125 0.0625 C0.90351684 2.66848877 -1.51830658 2.76604328 -6.1875 3.0625 C-6.8475 2.4025 -7.5075 1.7425 -8.1875 1.0625 C-5.17259443 0.05753148 -3.14568308 -0.04085303 0 0 Z " fill="#E9C268" transform="translate(230.1875,68.9375)"/>
<path d="M0 0 C1.36511719 0.43119141 1.36511719 0.43119141 2.7578125 0.87109375 C3.45648438 1.09925781 4.15515625 1.32742187 4.875 1.5625 C4.875 1.8925 4.875 2.2225 4.875 2.5625 C0.915 2.2325 -3.045 1.9025 -7.125 1.5625 C-7.125 0.9025 -7.125 0.2425 -7.125 -0.4375 C-4.30685434 -1.84657283 -2.95222796 -0.94622691 0 0 Z " fill="#B69852" transform="translate(285.125,197.4375)"/>
<path d="M0 0 C0.66 0.33 1.32 0.66 2 1 C2 2.65 2 4.3 2 6 C-3.94 5.01 -3.94 5.01 -10 4 C-6.1496895 1.43312633 -4.41430237 2.16711276 0 3 C0 2.01 0 1.02 0 0 Z " fill="#2C2F33" transform="translate(282,139)"/>
<path d="M0 0 C0.99 0.33 1.98 0.66 3 1 C3 3.31 3 5.62 3 8 C2.01 7.67 1.02 7.34 0 7 C0 6.34 0 5.68 0 5 C-0.66 4.67 -1.32 4.34 -2 4 C-1.34 2.68 -0.68 1.36 0 0 Z " fill="#C6A351" transform="translate(189,117)"/>
<path d="M0 0 C0.99 1.32 1.98 2.64 3 4 C2.34 4.66 1.68 5.32 1 6 C-0.01241685 7.32392972 -1.01439389 8.65599167 -2 10 C-2.66 8.68 -3.32 7.36 -4 6 C-3.34 6 -2.68 6 -2 6 C-2 4.68 -2 3.36 -2 2 C-1.34 2 -0.68 2 0 2 C0 1.34 0 0.68 0 0 Z " fill="#BF9D48" transform="translate(137,102)"/>
<path d="M0 0 C4.29 0 8.58 0 13 0 C13 0.99 13 1.98 13 3 C11.7315625 2.7834375 11.7315625 2.7834375 10.4375 2.5625 C6.96406851 1.9941203 3.48554338 1.48797607 0 1 C0 0.67 0 0.34 0 0 Z " fill="#E5C168" transform="translate(235,75)"/>
<path d="M0 0 C2.97 0 5.94 0 9 0 C8.67 0.99 8.34 1.98 8 3 C2.25 3.125 2.25 3.125 0 2 C0 1.34 0 0.68 0 0 Z " fill="#070709" transform="translate(134,75)"/>
<path d="M0 0 C-3.87671106 2.67289025 -7.79267603 2.01875653 -12.25 1.625 C-12.99507813 1.56828125 -13.74015625 1.5115625 -14.5078125 1.453125 C-16.33935108 1.31223742 -18.16981352 1.15748116 -20 1 C-20 0.67 -20 0.34 -20 0 C-17.41703983 -0.19522373 -14.83395921 -0.38144403 -12.25 -0.5625 C-11.52039063 -0.61857422 -10.79078125 -0.67464844 -10.0390625 -0.73242188 C-6.45046349 -0.97709908 -3.44972775 -0.99666259 0 0 Z " fill="#86733D" transform="translate(109,71)"/>
<path d="M0 0 C2.79872437 2.52788007 4.45773019 4.20411134 5 8 C4.34 8 3.68 8 3 8 C3 9.65 3 11.3 3 13 C2.34 12.67 1.68 12.34 1 12 C1.020625 10.948125 1.04125 9.89625 1.0625 8.8125 C1.01103198 5.67295096 0.73482813 3.03116604 0 0 Z " fill="#A9883A" transform="translate(105,143)"/>
<path d="M0 0 C0.33 0 0.66 0 1 0 C1.33 4.29 1.66 8.58 2 13 C0.68 11.68 -0.64 10.36 -2 9 C-1.953125 6.640625 -1.953125 6.640625 -1.25 4.25 C-1.02828125 3.45078125 -0.8065625 2.6515625 -0.578125 1.828125 C-0.38734375 1.22484375 -0.1965625 0.6215625 0 0 Z " fill="#D1A94E" transform="translate(171,138)"/>
<path d="M0 0 C0.33 0.66 0.66 1.32 1 2 C-1.19566645 8.47143795 -1.19566645 8.47143795 -4.1875 10.4375 C-5.0846875 10.7159375 -5.0846875 10.7159375 -6 11 C-4.74194623 6.49197399 -3.09592835 3.5087188 0 0 Z " fill="#0F0D0C" transform="translate(175,96)"/>
<path d="M0 0 C0.33 0 0.66 0 1 0 C1.144375 1.2375 1.28875 2.475 1.4375 3.75 C1.78688502 6.56504499 2.20379366 9.2701497 3 12 C2.01 11.67 1.02 11.34 0 11 C-0.33 11.66 -0.66 12.32 -1 13 C-0.67 8.71 -0.34 4.42 0 0 Z " fill="#C59E40" transform="translate(130,155)"/>
<path d="M0 0 C0.99 0.33 1.98 0.66 3 1 C2.67 2.65 2.34 4.3 2 6 C1.01 6.33 0.02 6.66 -1 7 C-1.33 7.99 -1.66 8.98 -2 10 C-1.54177532 6.53058454 -1.10868317 3.32604951 0 0 Z " fill="#353434" transform="translate(255,148)"/>
<path d="M0 0 C3.3 0 6.6 0 10 0 C9.34 1.32 8.68 2.64 8 4 C7.01 4 6.02 4 5 4 C5 3.34 5 2.68 5 2 C3.35 2 1.7 2 0 2 C0 1.34 0 0.68 0 0 Z " fill="#EAC260" transform="translate(269,144)"/>
<path d="M0 0 C3.3 0 6.6 0 10 0 C9.34 1.65 8.68 3.3 8 5 C7.01 4.34 6.02 3.68 5 3 C5 2.34 5 1.68 5 1 C3.35 1 1.7 1 0 1 C0 0.67 0 0.34 0 0 Z " fill="#3B3930" transform="translate(146,126)"/>
<path d="M0 0 C0.33 0.99 0.66 1.98 1 3 C1.66 3.33 2.32 3.66 3 4 C3 4.66 3 5.32 3 6 C1.68 6.33 0.36 6.66 -1 7 C-1.66 5.68 -2.32 4.36 -3 3 C-2.01 2.01 -1.02 1.02 0 0 Z " fill="#343531" transform="translate(275,186)"/>
<path d="M0 0 C0.33 0 0.66 0 1 0 C1 1.65 1 3.3 1 5 C1.66 5 2.32 5 3 5 C3 5.99 3 6.98 3 8 C1.02 8.66 -0.96 9.32 -3 10 C-2.690625 9.46375 -2.38125 8.9275 -2.0625 8.375 C-0.82172561 5.6015043 -0.4090325 2.99957163 0 0 Z " fill="#C6A555" transform="translate(283,156)"/>
<path d="M0 0 C0.99 1.32 1.98 2.64 3 4 C2.34 4 1.68 4 1 4 C1 4.66 1 5.32 1 6 C-0.65 6.66 -2.3 7.32 -4 8 C-2.87548273 5.0280615 -1.77706209 2.66559313 0 0 Z " fill="#CDA952" transform="translate(179,92)"/>
<path d="M0 0 C2.0625 0.4375 2.0625 0.4375 4 1 C3.2884375 1.5878125 3.2884375 1.5878125 2.5625 2.1875 C0.64820367 4.40808374 0.38733012 6.13375709 0 9 C-2 6 -2 6 -1.6875 3.375 C-1 1 -1 1 0 0 Z " fill="#33332E" transform="translate(150,80)"/>
<path d="M0 0 C-0.33 0.66 -0.66 1.32 -1 2 C-3.06640625 2.4140625 -3.06640625 2.4140625 -5.5625 2.625 C-6.38878906 2.69976562 -7.21507812 2.77453125 -8.06640625 2.8515625 C-9.02353516 2.92503906 -9.02353516 2.92503906 -10 3 C-6.84439813 -0.15560187 -4.30999015 -1.43666338 0 0 Z " fill="#C2A04D" transform="translate(245,187)"/>
<path d="M0 0 C0 0.33 0 0.66 0 1 C-0.7425 1.144375 -1.485 1.28875 -2.25 1.4375 C-4.89561831 1.93044449 -4.89561831 1.93044449 -7 2.625 C-9.54500607 3.10218864 -11.50958213 2.62260447 -14 2 C-14 1.67 -14 1.34 -14 1 C-9.23692563 0.04738513 -4.8333472 -0.08333357 0 0 Z " fill="#B29655" transform="translate(255,134)"/>
<path d="M0 0 C1.32 0.66 2.64 1.32 4 2 C4 2.66 4 3.32 4 4 C1.36 4.33 -1.28 4.66 -4 5 C-4 4.34 -4 3.68 -4 3 C-2 1.375 -2 1.375 0 0 Z " fill="#12100F" transform="translate(141,128)"/>
<path d="M0 0 C1.485 0.99 1.485 0.99 3 2 C3.1875 5.125 3.1875 5.125 3 8 C0.9375 6.25 0.9375 6.25 -1 4 C-0.75 1.75 -0.75 1.75 0 0 Z " fill="#040406" transform="translate(168,121)"/>
<path d="M0 0 C0.99 0 1.98 0 3 0 C3 2.31 3 4.62 3 7 C2.01 7.495 2.01 7.495 1 8 C0.67 5.36 0.34 2.72 0 0 Z " fill="#E0BD67" transform="translate(272,103)"/>
<path d="M0 0 C0.33 0 0.66 0 1 0 C1.0270043 1.45823212 1.04639787 2.91660675 1.0625 4.375 C1.07410156 5.18710938 1.08570312 5.99921875 1.09765625 6.8359375 C1 9 1 9 0 11 C-0.66 11 -1.32 11 -2 11 C-1.34 7.37 -0.68 3.74 0 0 Z " fill="#1B2229" transform="translate(88,94)"/>
<path d="M0 0 C2.02350324 3.03525486 2.32124018 4.19426202 2.625 7.6875 C2.69976562 8.49574219 2.77453125 9.30398437 2.8515625 10.13671875 C2.90054688 10.75160156 2.94953125 11.36648437 3 12 C0.27455353 9.27455353 -0.15254871 6.71574795 -1 3 C-0.67 2.01 -0.34 1.02 0 0 Z " fill="#957A33" transform="translate(74,87)"/>
<path d="M0 0 C1.98 0 3.96 0 6 0 C6 0.66 6 1.32 6 2 C6.66 2.33 7.32 2.66 8 3 C8 3.66 8 4.32 8 5 C4.62496331 3.8141763 2.35277269 2.72426311 0 0 Z " fill="#B29040" transform="translate(192,193)"/>
<path d="M0 0 C0.33 0 0.66 0 1 0 C1.29296875 6.0546875 1.29296875 6.0546875 1 8 C0.01 8.66 -0.98 9.32 -2 10 C-3 8 -3 8 -2.44140625 6.0546875 C-2.15136719 5.33539063 -1.86132812 4.61609375 -1.5625 3.875 C-1.27503906 3.15054688 -0.98757812 2.42609375 -0.69140625 1.6796875 C-0.46324219 1.12539062 -0.23507813 0.57109375 0 0 Z " fill="#1F2429" transform="translate(124,180)"/>
<path d="M0 0 C0.556875 0.226875 1.11375 0.45375 1.6875 0.6875 C-1.25078597 3.19048434 -3.49152761 4.15680939 -7.3125 4.6875 C-7.3125 4.0275 -7.3125 3.3675 -7.3125 2.6875 C-3.15982824 -0.42700382 -3.15982824 -0.42700382 0 0 Z " fill="#090A0D" transform="translate(280.3125,167.3125)"/>
<path d="M0 0 C1.32 0.33 2.64 0.66 4 1 C4 1.99 4 2.98 4 4 C4.66 4 5.32 4 6 4 C5.67 5.65 5.34 7.3 5 9 C3 6 3 6 3 3 C2.01 3 1.02 3 0 3 C0 2.01 0 1.02 0 0 Z " fill="#C7A44B" transform="translate(180,132)"/>
<path d="M0 0 C1.04005702 3.38018531 1.08004482 6.4780279 1 10 C0.01 10.33 -0.98 10.66 -2 11 C-1.125 3.375 -1.125 3.375 0 0 Z " fill="#A6883E" transform="translate(94,102)"/>
<path d="M0 0 C0.99 0.33 1.98 0.66 3 1 C2.67 3.64 2.34 6.28 2 9 C1.67 9 1.34 9 1 9 C1 7.35 1 5.7 1 4 C0.34 4 -0.32 4 -1 4 C-0.67 2.68 -0.34 1.36 0 0 Z " fill="#1D2126" transform="translate(91,100)"/>
<path d="M0 0 C-0.75 2.4375 -0.75 2.4375 -2 5 C-4.125 5.8125 -4.125 5.8125 -6 6 C-3.84615385 0 -3.84615385 0 0 0 Z " fill="#15110C" transform="translate(198,94)"/>
<path d="M0 0 C0.66 0.66 1.32 1.32 2 2 C2.66 1.67 3.32 1.34 4 1 C4 2.32 4 3.64 4 5 C2.35 5.33 0.7 5.66 -1 6 C-1.042721 4.33388095 -1.04063832 2.66617115 -1 1 C-0.67 0.67 -0.34 0.34 0 0 Z " fill="#08070A" transform="translate(148,86)"/>
<path d="M0 0 C1.65 1.65 3.3 3.3 5 5 C4.67 5.66 4.34 6.32 4 7 C2.68 6.34 1.36 5.68 0 5 C0 3.35 0 1.7 0 0 Z " fill="#C7A95D" transform="translate(283,140)"/>
<path d="M0 0 C2.31 0.66 4.62 1.32 7 2 C3.375 5 3.375 5 0 5 C0 3.35 0 1.7 0 0 Z " fill="#100F0B" transform="translate(90,128)"/>
<path d="M0 0 C0.99 0.33 1.98 0.66 3 1 C2.34 3.31 1.68 5.62 1 8 C0.01 7.34 -0.98 6.68 -2 6 C-1.34 6 -0.68 6 0 6 C-0.66 4.68 -1.32 3.36 -2 2 C-1.34 2 -0.68 2 0 2 C0 1.34 0 0.68 0 0 Z " fill="#C9A552" transform="translate(192,100)"/>
<path d="M0 0 C2.0625 0.4375 2.0625 0.4375 4 1 C4 1.66 4 2.32 4 3 C4.99 3.33 5.98 3.66 7 4 C4.125 4.1875 4.125 4.1875 1 4 C0.34 3.01 -0.32 2.02 -1 1 C-0.67 0.67 -0.34 0.34 0 0 Z " fill="#423C30" transform="translate(148,91)"/>
<path d="M0 0 C0.66 0 1.32 0 2 0 C1.6875 1.875 1.6875 1.875 1 4 C0.01 4.66 -0.98 5.32 -2 6 C-2.66 5.67 -3.32 5.34 -4 5 C-4 4.34 -4 3.68 -4 3 C-2.68 2.67 -1.36 2.34 0 2 C0 1.34 0 0.68 0 0 Z " fill="#2E3130" transform="translate(164,76)"/>
<path d="M0 0 C-2.31 1.32 -4.62 2.64 -7 4 C-7 2.68 -7 1.36 -7 0 C-3.86650268 -1.04449911 -3.01031744 -0.93423645 0 0 Z " fill="#15130D" transform="translate(102,77)"/>
<path d="M0 0 C1.65 1.32 3.3 2.64 5 4 C1.66666667 4 -1.66666667 4 -5 4 C-3.35 2.68 -1.7 1.36 0 0 Z " fill="#343531" transform="translate(259,184)"/>
<path d="M0 0 C0.66 0 1.32 0 2 0 C3.38938077 1.96147874 4.7260411 3.96166576 6 6 C3 6 3 6 1.4375 4.5625 C0.963125 4.046875 0.48875 3.53125 0 3 C-0.66 2.67 -1.32 2.34 -2 2 C-1.34 1.34 -0.68 0.68 0 0 Z " fill="#C7A452" transform="translate(254,178)"/>
<path d="M0 0 C2.0625 2.3125 2.0625 2.3125 4 5 C3.67 5.99 3.34 6.98 3 8 C0.9375 6.25 0.9375 6.25 -1 4 C-0.75 1.75 -0.75 1.75 0 0 Z " fill="#23262A" transform="translate(188,176)"/>
<path d="M0 0 C1.68762851 1.6454378 3.3540349 3.31288577 5 5 C5 5.33 5 5.66 5 6 C3.35 6 1.7 6 0 6 C0 4.02 0 2.04 0 0 Z " fill="#171410" transform="translate(133,109)"/>
<path d="M0 0 C1.32 0.33 2.64 0.66 4 1 C2.68 2.65 1.36 4.3 0 6 C-0.99 5.67 -1.98 5.34 -3 5 C-2.01 3.35 -1.02 1.7 0 0 Z " fill="#DBB867" transform="translate(260,80)"/>
</svg>
